<?xml version="1.0" standalone="no"?>
<!DOCTYPE svg PUBLIC "-//W3C//DTD SVG 1.1//EN" "http://www.w3.org/Graphics/SVG/1.1/DTD/svg11.dtd" >
<svg xmlns="http://www.w3.org/2000/svg">
<metadata>
This is a custom SVG webfont generated by Font Squirrel.
Copyright   : Versi Lisensi Resmi Hanacaraka  2005  Licensed 
</metadata>
<defs>
<font id="HanacarakaNormal" horiz-adv-x="101" >
<font-face units-per-em="2048" ascent="1638" descent="-410" />
<missing-glyph horiz-adv-x="532" />
<glyph unicode=" "  horiz-adv-x="532" />
<glyph unicode="&#x09;" horiz-adv-x="532" />
<glyph unicode="&#xa0;" horiz-adv-x="532" />
<glyph unicode="!" horiz-adv-x="2164" d="M288 1379q28 43 167.5 131.5t186.5 89.5h1q59 0 80 -87q3 -13 12 -118q66 54 183 121q136 78 195 83h7q54 0 73 -74q4 -17 11 -115q67 53 180 114q133 73 190 75h3q60 0 78 -79l10 -110q68 54 184 116q136 73 193 73h2q76 -1 103 -104q1 -5 17 -146v-1355h-252v1320 q0 28 -19 72q-23 53 -51 53h-1q-97 -4 -135 -63q-32 -48 -32 -152v-1230h-203v1359q-3 96 -90 96q-77 0 -126 -40q-52 -43 -52 -117v-1298h-203v1324q-13 120 -91 120h-3q-48 -1 -117 -48q-68 -46 -68 -89q0 -5 1 -11v-1296h-193v1336q1 10 1 18q0 95 -70 95q-57 0 -172 -64 z" />
<glyph unicode="&#x22;" horiz-adv-x="218" />
<glyph unicode="#" horiz-adv-x="2297" d="M302 -5v1076q0 250 64 376q87 170 306 170q256 0 256 -360v-798q0 -113 10 -158q18 -75 79 -137q34 -34 134 -56v162q-45 -6 -126 -26l278 171v-294h8q64 0 152 32q111 40 111 92v1034q0 245 -290 320q144 22 381 22q421 0 510 -89q92 -92 114 -272q8 -65 8 -308v-953 h-251v1213q0 158 -147 256q-131 88 -300 88q-27 0 -52 -3q132 -114 132 -275v-964q0 -80 -143 -197q-133 -108 -231 -132v-143q0 -32 61 -37q11 -1 22 -1q32 0 61 7l79 35l-145 -145q-44 -44 -100 -44q-51 0 -91 40q-41 42 -41 246v28q-181 7 -301 69q-154 79 -154 230v848 q0 166 -12 218q-30 131 -139 131q-117 0 -155 -165q-19 -83 -19 -262v-1045h-69z" />
<glyph unicode="$" horiz-adv-x="1984" d="M227 714l160 160q81 36 105 45q60 23 110 29v226q0 9 1.5 44t1.5 57q0 168 -77 168q-15 0 -32 -6q-3 -10 -3 -20l-151 -151q1 61 60 120l137 140q78 66 172 66q76 0 102 -85q13 -44 15 -149q94 120 176 171q101 63 235 63q91 0 119 -60q17 -36 23 -151l4 5 q139 139 190 166q77 40 250 40q117 0 146 -81q14 -40 14 -198v-540q59 8 140 41q102 42 134 51q-113 -113 -134 -128q-16 -12 -140 -79v-660h-248v623q-89 -10 -183 -10q-84 0 -172 8v-621h-227v648q-108 14 -171 34q-8 2 -155 58v-740h-227v790q-34 11 -76 11 q-106 0 -299 -85zM829 936q61 -13 326 -90v328q0 20 2.5 62t2.5 63q0 138 -122 143h-10q-62 0 -102 -35l-97 -105v-366zM1382 794q93 -23 355 -29v409q0 22 1 60.5t1 54.5q0 81 -21 113q-26 41 -100 41q-13 0 -27 -1q-76 -6 -103 -22q-22 -13 -106 -97v-529z" />
<glyph unicode="%" horiz-adv-x="2075" d="M304 -5v1189q0 399 358 399q235 0 235 -305v-880q0 -160 29 -189q24 -24 48 -24q44 0 77 75q32 72 36 173l150 120q0 -320 44 -365q39 -40 70 -40q47 0 70 96q15 64 15 140v922q-138 -48 -225 -48q-139 0 -139 119t105 241q108 126 222 126q173 0 173 -217q0 -32 -4 -67 q71 22 192 22q198 0 258 -60q57 -57 57 -262v-1165h-252v1216q0 88 -24 119q-16 20 -64 27q-23 3 -42 3q-16 0 -30 -2q-52 -11 -103 -23v-862q0 -178 -65 -307q-85 -166 -254 -166q-62 0 -105 43q-21 21 -21 207l-109 -188q-37 -63 -177 -63q-86 0 -131 46q-33 33 -33 214 v980q0 91 -17 130q-9 19 -51 64q-38 9 -70 9q-154 0 -154 -190v-1257h-69zM1206 1514q0 -38 35 -78q31 -27 101 -27q42 0 98 10q-8 96 -42 133q-44 40 -98 40q-39 0 -66.5 -22t-27.5 -56z" />
<glyph unicode="&#x26;" horiz-adv-x="2438" d="M293 -1v1177q0 401 313 403h5q105 0 156 -38q11 -8 79 -94q110 140 265 140q113 0 151 -100q22 -61 22 -206v-886q0 -160 28 -189q25 -28 54 -28q44 0 77.5 56t33.5 135l145 152v7q2 0 10 -119q13 -195 23 -206q34 -36 87 -36q72 0 106 85q25 62 25 149v691 q-5 173 -59 225q-44 42 -180 42h-64q-46 -1 -73 -1q156 120 374 190q172 54 295 54q17 0 32 -1q176 -11 218 -122q21 -54 21 -280v-1200h-251v1286q0 86 -20 123q-4 7 -35 37q-46 44 -136 44q-112 0 -310 -77h13q150 0 207 -66q48 -56 48 -195v-610q0 -125 -4 -166 q-10 -105 -120 -228q-115 -131 -218 -131q-68 0 -105 52q-33 46 -33 117q-90 -117 -98 -124q-53 -49 -140 -49q-79 0 -125 48q-33 34 -33 195v1046q0 84 -19 110q-11 15 -56 27q-10 3 -21 3q-37 0 -76 -27q-34 -22 -50 -48v-1367h-186v1152q0 157 -9 198q-23 109 -113 109 h-5q-185 -6 -185 -293v-1166h-64z" />
<glyph unicode="'" horiz-adv-x="631" />
<glyph unicode="(" horiz-adv-x="715" d="M-2201 -391q0 260 410 371q-125 -88 -163 -145q-49 -73 -49 -206q0 -325 748 -496q457 -104 1002 -125v1006h252v-1007q159 4 283 21q3 39 3 441q0 266 42 357q25 86 121 178q13 12 167 139q-97 -127 -119 -209q15 2 30 2q127 0 235 -139q101 -130 101 -259 q0 -198 -148 -358q-137 -150 -338 -205q-27 -242 -103 -445q-109 -295 -266 -295q-124 0 -196 81q-33 37 -46 292l-10 307h-61q-344 0 -709 41q-391 44 -719 179q-467 192 -467 474zM10 -1312q0 -299 107 -299q77 0 122 249q15 89 36 316q-79 -14 -263 -28q2 -17 2 -47 q0 -23 -2 -88t-2 -103zM386 -955q168 32 232 116t64 269q0 246 -265 351q-5 -66 -5 -150q0 -44 2 -132t2 -132q0 -189 -30 -322z" />
<glyph unicode=")" horiz-adv-x="378" d="M-2094 -1405q0 241 498 398q-198 -121 -228 -146q-140 -113 -140 -234q0 -26 6 -52q79 -342 773 -504q392 -91 914 -111v935h184v-937q83 3 208 20q3 39 3 406q0 245 37 328q25 81 111 163q10 10 152 129q-9 -35 -55 -100t-53 -93q15 3 30 3q113 0 210 -131 q91 -121 91 -236q0 -190 -129 -333q-119 -131 -310 -185q-22 -171 -87 -330q-82 -200 -178 -200q-206 0 -215 475h-60q-316 0 -651 38q-373 43 -630 150q-428 179 -478 511q-3 18 -3 36zM-84 -2130q1 -188 17 -264q21 -100 80 -100q50 0 78 175l23 215q-14 -3 -198 -26z M216 -2021q152 31 210 108.5t58 246.5q0 228 -241 323q-2 -44 -2 -97q0 -44 2 -130t2 -129q0 -191 -29 -322z" />
<glyph unicode="*" horiz-adv-x="2133" d="M306 843l158 234q16 -28 78 -198q46 -126 215 -180q-38 499 -164 588q-68 49 -217 49q-19 0 -39 -1l198 233q66 -1 132 -3q64 -7 121 -47q111 -77 155 -286q39 -184 55 -567h10q78 0 218 15q154 16 228 16q24 0 47 -1q27 491 113 614l1 1q156 212 202 246q92 67 308 67 l-170 -236q-154 0 -176 -3q-64 -10 -90.5 -62t-42.5 -196l-34 -444q382 -74 476 -454l45 -228h-248q-13 96 -44 287q-19 101 -80 186q-66 93 -156 129q-25 -244 -62 -323q-72 -152 -137 -217q-110 -110 -288 -110q-181 0 -244 49q-67 53 -87 222q-3 30 -22 354 q-222 16 -329 93q-72 52 -130 173zM1002 575q13 -193 19 -227q18 -96 75 -136q66 -45 213 -45q101 0 146 80q33 60 38 181l4 197q-28 3 -58 3q-78 0 -219 -23q-161 -26 -218 -30z" />
<glyph unicode="+" horiz-adv-x="138" d="M-1160 2142l118 123q12 -79 44 -115q14 -13 29 -11l96 100q-22 -47 -61 -87l-114 -119q-17 -18 -34 -18q-30 0 -54 51q-18 38 -24 76zM-982 2395l118 123q13 -79 44 -115q14 -13 30 -11l96 100q-23 -47 -61 -87l-115 -119q-17 -18 -34 -18q-29 0 -54 51q-18 37 -24 76z M-868 2142l118 123q12 -79 44 -115q14 -13 29 -11l96 100q-22 -47 -61 -87l-114 -119q-17 -18 -34 -18q-30 0 -54 51q-18 38 -24 76z" />
<glyph unicode="," horiz-adv-x="1016" d="M286 406q247 -117 394 -140l-116 358q-62 192 -103 357l-87 348q56 -231 547 -1139l-145 -144q-129 36 -490 360z" />
<glyph unicode="-" horiz-adv-x="1015" d="M-1952 -707q0 252 242 363q174 79 456 79q52 0 194 -4.5t222 -4.5q276 0 406 46q177 63 177 208v29h255v-29q-34 -223 -270 -273q-122 -26 -359 -26q-16 0 -119.5 2.5t-181.5 2.5q-913 0 -913 -292q0 -94 97 -190q106 -104 293 -173q303 -112 841 -112q383 0 567 59 q292 94 332 360v1978q5 166 136 265q107 82 225 82q202 0 291 -118q77 -103 77 -310v-1474h-253v1504q-4 118 -65 200q-58 76 -129 76q-62 0 -100 -64q-44 -72 -44 -208v-1850q0 -325 -405 -501q-348 -151 -862 -151q-289 0 -535 52q-251 52 -375 143q-200 146 -200 331z " />
<glyph unicode="." horiz-adv-x="1610" d="M340 406q246 -117 394 -140l-117 358q-76 236 -102 357l-75 348q35 -145 252 -588l282 -551l-144 -144q-129 36 -490 360zM913 406q247 -117 394 -140l-116 358q-65 202 -103 357l-91 371q62 -258 551 -1162l-145 -144q-129 36 -490 360z" />
<glyph unicode="/" horiz-adv-x="152" d="M-287 1947q100 249 355 606q57 80 325 399l98 95q-214 -299 -325 -502q-200 -365 -252 -598h-201z" />
<glyph unicode="0" horiz-adv-x="1241" d="M176 487q0 225 137 469q88 158 289 400l101 122q-25 -56 -30 -63q-124 -169 -150 -209q-79 -119 -121 -225q-52 -132 -52 -277q0 -158 60 -266q74 -134 219 -134q173 0 241 130q49 96 49 292q0 391 -210 630l169 232q187 -214 187 -628q0 -275 -149 -563 q-177 -340 -429 -340q-159 0 -242 142q-69 117 -69 288z" />
<glyph unicode="1" horiz-adv-x="1893" d="M120 1240q2 61 79 119l164 129q111 78 197 78q133 0 139 -235q83 83 184 150q129 85 209 85q127 0 139 -212l6 5q142 118 171 138q105 69 204 69q151 0 151 -280v-1277h-241v1138q0 132 1 132v-1q-6 89 -45 122q-19 13 -43 13q-32 0 -79 -23l-138 -104v-1277h-222v1138 q0 132 1 132v-1q-6 89 -44 122q-18 12 -42 12q-50 0 -129 -58l-97 -78v-1267h-221v1138q0 132 1 132v-1q-6 89 -44 122q-24 16 -58 16q-18 0 -40 -5q-4 -11 -4 -21z" />
<glyph unicode="2" horiz-adv-x="2351" d="M141 5v1153q0 198 58 279q83 117 325 117q121 0 176 -106q39 -75 39 -186v-1063q54 -46 147 -46q105 0 209 50q12 22 17 44l179 152q-17 -76 -87 -136q-188 -160 -212 -176q-120 -80 -255 -80q-184 0 -201 176v1092q0 53 -24 102q-30 60 -79 60q-240 0 -240 -279v-1153 h-52zM928 -644q0 375 738 637q87 31 93 35q17 12 18 58l2 1180q0 107 -14.5 146t-51.5 39q-21 0 -95 -23v-230h-133v169q0 104 -89 104q-43 0 -76 -28q-35 -31 -35 -76v-169h-96v169q4 213 214 213q136 0 179 -79q66 89 273 89h22q101 -2 136 -81q23 -51 23 -166l-2 -1307 q43 5 107.5 26.5t196.5 37.5l-178 -151q-28 -3 -33 -16.5t-92 -23.5v-52q0 -305 -33 -415q-42 -139 -156 -257q-32 -34 -230 -201q-83 -70 -208 -70q-178 0 -324 123q-156 133 -156 319zM1093 -510q0 -193 135 -309q125 -107 341 -107q64 0 113 15q88 150 88 553 q0 51 -1 129q-2 93 -2 114l-18 -2q-287 -32 -422 -88q-234 -98 -234 -305z" />
<glyph unicode="3" horiz-adv-x="2542" d="M198 1323q0 290 273 290q127 0 179 -69q44 -57 44 -180v-1067q14 -138 146 -138t149 92l153 153q-14 -78 -74 -138l-145 -145q-110 -110 -251 -110q-96 0 -143 33q-52 36 -62 124v1186q-7 52 -13 103q-10 45 -57 47h-8q-103 0 -103 -142q0 -16 1 -45.5t1 -42.5v-1267h-86 v1253q-4 30 -4 63zM259 -457q0 81 48 160q102 168 351 168q200 0 576 -125q58 -19 100 -19q134 0 134 241q0 26 -1 57v1385q0 97 -37 97q-30 0 -89 -51v-223h-117v149q0 135 -71 135q-90 0 -90 -135q1 -27 1 -64.5t-1 -84.5h-92v149q0 85 44 148q51 72 138 72q162 0 188 -72 q91 89 161 89q32 0 68 -13q97 -34 97 -176v-1176q0 -165 -9 -208q-37 -173 -169 -297q-135 -127 -295 -127q-74 0 -291 69q-225 73 -307 78q-9 1 -18 1q-83 0 -160 -50q-89 -59 -89 -142q0 -67 66 -132q108 -107 346 -170q210 -56 421 -56q67 0 121 7q265 33 391 123 q118 85 157 254q29 125 32 415v1247q4 198 51 268q62 93 249 100q19 1 37 1q144 0 209 -50q72 -56 72 -202q0 -26 -2 -56v-1334h-239v1370q-11 93 -72 116q-37 14 -71 14q-91 0 -139 -90v-1364q0 -176 -5 -223q-36 -335 -267 -539q-223 -197 -542 -201h-19q-187 0 -399 56 q-252 65 -356 169q-111 111 -111 242z" />
<glyph unicode="4" horiz-adv-x="1616" d="M199 661q0 283 104 447q76 120 328 318q74 59 239 95l259 53q198 55 375 235q-20 -67 -129 -145l-150 -99q-43 -34 -229 -90l-262 -75q-206 -61 -277 -201q-57 -113 -57 -366q0 -230 86 -401q103 -206 304 -256q67 -17 127 -17q129 0 203 75q79 79 79 225q0 115 -75 175 q-57 45 -131 45q-102 0 -298 -102l236 181q162 143 162 254q0 71 -70 126q-52 41 -117 41q-99 0 -278 -122l-7 6l194 153q155 122 269 122q73 0 132 -47q76 -60 76 -134q0 -79 -76 -169q-101 -120 -162 -173q59 20 116 20q99 0 161 -57q68 -62 68 -176q0 -83 -38 -170 q-40 -92 -102 -141l-194 -153q-168 -133 -360 -133q-52 0 -101 12q-205 50 -313 246q-92 168 -92 398z" />
<glyph unicode="5" horiz-adv-x="1913" d="M187 648q0 187 57 352q85 244 368 442.5t536 198.5q235 0 394 -150q163 -153 163 -387v-1372h-251v1226q0 524 -489 524q-54 0 -117 -6q-157 -14 -298 -163q-180 -190 -180 -493q0 -234 83 -407q94 -197 270 -244q59 -16 112 -16q127 0 199 91q63 78 63 191 q0 126 -71 188q-51 44 -119 44q-92 0 -270 -101l217 185q143 143 143 247q0 70 -63 124q-47 41 -107 41q-88 0 -250 -121l-7 6q206 178 210 181q145 108 254 108q83 0 129 -45q43 -42 43 -112q0 -97 -79 -193q-50 -64 -157 -177l-8 -7q86 31 157 31q186 0 186 -195 q0 -90 -45 -193q-45 -106 -112 -163l-176 -152q-153 -132 -326 -132q-48 0 -92 12q-182 49 -280 238q-87 169 -87 399z" />
<glyph unicode="6" horiz-adv-x="1948" d="M136 33l5 6q226 445 403 695q201 283 531 599q118 113 224 113q30 0 62 -14q39 -17 39 -43q0 -32 -88 -115q-63 -60 -119 -102q59 59 59 110q0 31 -32 31q-26 0 -71 -23q-261 -211 -452 -457q-149 -193 -351 -545q307 87 359 100q207 49 368 49q140 0 245 -46 q68 -31 216 -134q157 -110 226 -110q32 0 54 18l-159 -191q-54 -42 -105 -42q-63 0 -176 86q-136 103 -182 129q-103 57 -211 57q-120 0 -403.5 -87.5t-388.5 -87.5q-29 0 -53 4z" />
<glyph unicode="7" horiz-adv-x="2183" d="M125 1205q0 110 132.5 256t244.5 146q109 0 139 -143q265 148 314 148q67 0 93 -56q13 -29 21 -109v-1208q0 -114 15 -143q25 -47 126 -47q154 0 209 69v1018q0 186 116 318q119 138 298 138q31 0 62 -5q82 -12 107 -141q11 -60 11 -214v-1230h-232v1301q0 155 -99 155 q-28 0 -62 -17q-136 -68 -136 -252v-999v-9q0 -100 -81 -137q-93 -43 -250 -43q-133 0 -183 15q-85 24 -87 104v1070q0 127 -1 134q-8 74 -53 120q-27 27 -65 27q-66 0 -126 -63v-1406h-234v1203q0 85 -2 108q-11 126 -72 126q-120 0 -148 -238v-1202h-57v1206z" />
<glyph unicode="8" horiz-adv-x="2206" d="M224 0v1134q0 184 98 310q110 139 300 139q127 0 168 -90q27 -59 27 -215v-880q0 -102 17 -149q28 -80 112 -80q68 0 111 194l150 150q0 -12 -3 -78q-1 -33 -1 -61q0 -147 38 -186q35 -36 120 -36q37 0 65 8q10 42 10 224v922q-131 -45 -232 -45q-76 0 -108 31 q-37 37 -37 87q0 105 209 314q51 51 131 51q77 0 125 -48q26 -26 35 -110q4 -37 4 -71q0 -29 -3 -55q78 24 200 24q170 0 232 -62q57 -57 57 -232v-1190h-231v1071q0 152 -53 206q-57 58 -205 58v-812v-159q-7 -104 -44 -147l-125 -144q-63 -73 -190 -73q-71 0 -111 50 q-37 46 -37 119l-87 -87q-32 -32 -96.5 -57t-120.5 -25q-67 0 -131 65q-33 33 -33 194v880q0 201 -68 274q-38 33 -75 33q-61 0 -108 -81q-41 -70 -41 -133v-1232h-69zM1215 1524q0 -57 26 -88q31 -27 101 -27q42 0 98 10q-8 96 -42 133q-45 41 -126 41q-57 0 -57 -69z" />
<glyph unicode="9" horiz-adv-x="2372" d="M106 4v1120q0 461 382 461q174 0 174 -367v-62q-1 -38 -1 -50v-875q0 -32 55 -59.5t108 -27.5q62 0 62 41v1047q0 161 96 259q101 102 275 102q95 0 143 -90q38 -72 38 -175v-1025q0 -83 28 -116q45 -40 93 -40q63 0 108.5 60.5t45.5 140.5v821q0 196 68 293 q82 118 279 118q193 0 193 -264v-1312h-212v1203q0 74 -9 102q-16 54 -73 89q-32 12 -58 12q-119 0 -119 -203v-801q0 -104 -9 -147q-15 -74 -69 -128q-127 -127 -338 -127q-88 0 -127 38q-34 33 -34 142v1005q0 103 -10 145q-21 89 -89 89q-93 0 -126 -51q-25 -39 -25 -133 v-976q0 -63 -33 -119q-6 -10 -75 -102q-28 -38 -158 -38q-110 0 -160 17q-83 30 -83 117v954q0 158 -7 198q-21 120 -103 120q-23 0 -51 -9q-77 -26 -99 -86q-12 -35 -12 -134v-1177h-68z" />
<glyph unicode=":" horiz-adv-x="1031" d="M548 372q0 71 51.5 121t124.5 50q72 0 123.5 -50t51.5 -121t-51.5 -121t-123.5 -50q-73 0 -124.5 50t-51.5 121zM548 1062q0 71 51.5 121t124.5 50q72 0 123.5 -50t51.5 -121t-51.5 -121t-123.5 -50q-73 0 -124.5 50t-51.5 121z" />
<glyph unicode=";" horiz-adv-x="1092" d="M438 355q0 70 36 116q40 51 108 51q148 0 148 -122q0 -45 -27 -90q33 9 112 47q88 42 122 70l6 -6l-65 -86q-101 -80 -128 -97q-79 -50 -149 -50q-69 0 -116 48.5t-47 118.5zM438 1081q0 70 36 116q40 51 108 51q148 0 148 -123q0 -44 -27 -89q33 9 112 47q88 42 122 69 l6 -5l-65 -86q-101 -80 -128 -97q-79 -50 -149 -50t-116.5 48.5t-46.5 118.5z" />
<glyph unicode="&#x3c;" horiz-adv-x="211" d="M-1395 -407q0 233 211 233q145 0 145 -135v-674h122q6 0 39.5 16.5t33.5 21.5q0 6 -85 15l75 40q33 -3 103 -3q-15 -26 -142 -121q-41 -31 -121 -31h-190v661q0 138 -78 138q-80 0 -80 -180v-620h-33v639zM-1042 -1425q0 100 71 161q77 66 197 132q142 79 227 87h1v784 q0 47 -59 47t-59 -47v-110h-66v110q0 49 -51 49t-51 -49v-110h-48v110q0 102 103 102q37 0 56 -20l25 -31q16 16 33 31q29 20 75 20q11 0 34 1h36q130 0 130 -103v-769q25 9 156 35l-71 -83q-7 -6 -84 -22l4 -146v-14q0 -76 -10 -131q-13 -69 -161 -168q-144 -97 -225 -97 q-118 0 -185 58q-78 66 -78 173zM-947 -1351q0 -82 83.5 -145.5t189.5 -63.5q42 0 81 11q47 81 47 287v25l-1 124q-400 -69 -400 -238z" />
<glyph unicode="=" horiz-adv-x="138" d="M-202 2168q0 76 54 133t129 57q151 0 151 -126q0 -43 -21 -89q24 -10 55 -10q152 0 324 231q-90 -176 -172 -259q-121 -123 -278 -123q-94 0 -162 44q-80 52 -80 142z" />
<glyph unicode="&#x3e;" horiz-adv-x="2013" d="M174 -26l88 106q73 85 128 121q86 57 179 57q64 0 166 -33.5t143 -33.5q11 17 40 48q37 16 142 56l-90 -116q138 -6 408 -37v1158q0 159 93 227q81 60 250 60q292 0 292 -308v-1278h-255v1164q0 203 -49 256q-35 38 -122 38q-137 0 -144 -134v-1132q-1 -22 -52 -98 q-53 -80 -79 -80q6 0 -121 5q-180 8 -215 16q85 -51 85 -110q0 -44 -51 -98l-69 -67q-31 -40 -165 -110l128 165q77 38 77 79q0 43 -79 84q-60 31 -134 49q-4 3 -4 4q-3 8 18 35q-24 1 -133 54t-174 53q-30 0 -56 -10q-35 -13 -121 -90q-93 -83 -124 -100z" />
<glyph unicode="?" horiz-adv-x="1631" d="M45 1980v39l444 41v-2876l240 21v-45l-489 -41v2882zM680 1980v39l444 41v-2876l240 21v-45l-490 -41v2882z" />
<glyph unicode="@" horiz-adv-x="2069" d="M297 -4q-1 230 -1 532t1 677q2 168 69 268q77 115 232 115q228 0 228 -369v-401l252 71q-1 60 -1 137t1 171q11 182 112 286.5t264 104.5q358 0 358 -439v-10v-836q-1 -94 115 -94q67 0 67 179v763q0 263 60 340q65 85 297 97l-110 -161q-114 -26 -148 -81 q-26 -43 -26 -162v-1188h-238h-56q-181 7 -184 127v-2v137v904q0 150 -42 206q-49 65 -191 68h-3q-154 0 -163 -285q1 -43 1 -106.5t-1 -147.5q97 -21 138 -64q57 -60 77 -102q32 -67 32 -178q0 -149 -77 -332q-95 -225 -231 -225q-51 0 -51 124v626q-9 1 -21 1 q-40 0 -109 -10q-89 -14 -122 -31v-247v-463h-218v544v558q0 186 -6 233q-12 90 -60 93h-14q-164 0 -164 -255q0 -13 1 -27v-14v-1132h-68zM1178 276q0 -27 20 -64q23 -44 50 -44q63 191 63 337q0 206 -133 227q2 -160 2 -273q0 -43 -1 -103t-1 -80z" />
<glyph unicode="A" horiz-adv-x="2724" d="M306 672q0 177 47 335q114 383 636 567q103 36 138 56q55 29 120 94q-56 -133 -233 -227q-54 -28 -308 -126q-259 -99 -259 -509q0 -228 78 -416q101 -244 292 -244q133 0 188 75q48 64 48 204q0 110 -56 166q-42 42 -98 42q-76 0 -222 -97l183 181q113 129 113 231 q0 67 -52 119q-40 40 -90 40q-69 0 -204 -116l-6 6l145 145q167 167 278 167q48 0 83 -35q56 -57 56 -127q0 -75 -56 -160q-36 -57 -115 -157l-6 -6q48 21 88 21q61 0 109 -48q61 -61 61 -176q0 -83 -31 -167q-54 -145 -229 -296q-187 -161 -336 -161q-32 0 -60 9 q-162 50 -241 252q-61 156 -61 358zM1034 -12q153 282 352 363q102 41 156 41q48 0 106 -32l149 -90l79 -55q60 -39 100 -39q38 0 61 32q36 120 47 691q-113 83 -185 83q-191 0 -450 -235l94 142q71 100 144 155q98 75 212 82h14q79 0 174 -51q16 203 108 346 q106 164 276 164h18q211 -11 211 -211v-704q74 1 132 61l101 -159q-99 -86 -213 -86q-10 0 -20 1v-486h-229v589q-67 45 -282 225q-2 -189 -11 -308q-17 -234 -71 -302l-83 -118q-65 -81 -123 -81q-43 0 -150 65q-253 154 -356 154q-138 0 -361 -237zM2199 1003l280 -220 v499q-2 107 -12 140.5t-44 52.5q-28 16 -54 16q-94 0 -140 -208q-30 -135 -30 -271v-9z" />
<glyph unicode="B" d="M-1363 -888q0 156 104 332q85 143 203 253q146 136 263 136q54 0 58 -56l-164 -177q-2 35 -12 47t-43 12q-114 0 -172 -120q-46 -96 -46 -239q0 -142 33 -177q38 -39 85 -39q94 0 230 155l166 211q7 154 119 261q110 104 254 104q283 0 283 -310v-624h-188l1 619 q-9 76 -85 116q-62 32 -144 32q-64 0 -119 -71q-50 -65 -50 -122v-10q53 -6 106 -11q67 -12 103 -57q47 -60 54 -191v-14q0 -73 -48 -170q-60 -119 -135 -119q-53 0 -98 38.5t-54 90.5q-4 25 -4 200v179q-102 -131 -330 -396q-73 -79 -188 -79q-88 0 -140 56q-42 45 -42 140 zM-592 -814q0 -181 66 -181q93 0 93 124q0 70 -35 124q-39 59 -99 59q-8 0 -17 -1q-8 -44 -8 -125z" />
<glyph unicode="C" d="M-1352 -822q0 206 138 409q142 207 296 207q40 0 56 -31l-148 -147q-8 20 -31 20q-56 0 -115 -84q-69 -100 -69 -242q0 -122 45 -196q40 -67 100 -67q53 0 97 55q47 61 67 171q20 69 51 198q-51 -17 -150 -41l5 41l151 44q32 125 70 218l34 86q33 67 68 67t47 -28l24 -85 q7 -59 21 -188l5 1l189 43q114 25 190 25q133 0 182 -108q28 -62 28 -144v-515h-181v460q0 173 -175 173q-34 0 -80 -6q27 -52 73 -179q14 -54 14 -115q0 -127 -53 -218q-58 -101 -154 -101q-65 0 -141 51q-30 20 -34 253v56q0 100 -5 210q-7 13 -38 13q-12 0 -28 -2 q-17 -53 -36 -187t-36 -187q-31 -99 -103 -160t-152 -61q-111 0 -179 114q-43 72 -43 177zM-793 -467l54 19l-9 137zM-583 -513l35 -280q28 -186 40 -186q-7 -2 31 -2q60 0 60 216q0 78 -45 153q-49 84 -121 99z" />
<glyph unicode="D" d="M-1598 -846q0 164 164 380q84 110 286 312l6 -49q-283 -286 -283 -496q0 -89 58.5 -152.5t258.5 -63.5q40 0 70 4q33 23 33 77q0 61 -42 153l180 91q0 -206 71 -276t256 -70q77 0 139 35q70 40 70 99q0 52 -57 110l-169 127q-112 86 -112 155q0 75 216 251l6 -6 q-28 -33 -28 -68q0 -68 111 -152l124 -88q68 -56 68 -115q0 -105 -92 -232q-17 -22 -164 -190q-78 -89 -245 -89q-99 0 -182 36q-89 38 -126 104l-67 -67q-59 -59 -229 -59q-190 0 -254 68q-67 72 -67 171z" />
<glyph unicode="E" horiz-adv-x="2085" d="M362 92q0 206 580 857q-102 8 -320 23l191 231q99 -8 296 -21q327 381 522 381q41 0 74 -21q37 -24 37 -63q0 -107 -182 -268q-157 -138 -291 -196q-154 -67 -280 -67q-12 0 -24 1q-63 -74 -205 -319q-152 -262 -152 -318q0 -16 11 -16q87 11 301 89q191 70 304 70 q98 0 276.5 -83.5t278.5 -83.5q66 0 149 42l136 78l-226 -288q-160 -88 -238 -88q-110 0 -290.5 84t-254.5 84q-102 0 -312.5 -89.5t-292.5 -89.5q-88 0 -88 71zM1143 1181q232 0 354 53q99 42 99 103q0 32 -30 54.5t-74 22.5q-100 0 -198 -77q-60 -47 -151 -156z" />
<glyph unicode="F" d="M-1405 -1126q339 425 714 770q104 96 243 150q128 49 243 49q76 0 150 -26l-163 -167q-82 29 -156 29q-148 0 -298 -122q-314 -312 -476 -514q18 2 261 60q221 53 337 61q30 2 58 2q160 0 276 -76q87 -56 218 -210l-188 1q-112 114 -276 114q-32 0 -85.5 -4.5t-74.5 -4.5 q-127 0 -391 -52q-278 -55 -392 -60z" />
<glyph unicode="G" d="M-1207 -415q1 51 93 136q89 82 134 82q71 0 75 -156q17 23 186 89q166 64 202 64q60 0 66 -138v3l189 85q124 50 196 50q66 0 66 -184v-741h-185v649q0 112 1 112t1 -7q-2 43 -23 63q-164 -36 -249 -76v-741h-157v649q0 99 1 99v-1q-6 72 -44 72q-29 0 -130 -33 q-105 -33 -124 -51v-735h-169v647q0 174 -11 174q-5 -1 -8 -5z" />
<glyph unicode="H" horiz-adv-x="2351" d="M183 -13q388 388 573 388q49 0 226 -111.5t254 -111.5q43 0 72 26v1098q0 115 57 204q67 106 183 106q95 0 175 -65q63 -51 84 -106l177 100q139 71 204 71q113 0 148 -150q16 -68 16 -222v-1207h-253v1207q0 158 -56 213q-27 26 -67 26q-81 0 -156 -75v-1371h-182v1132 q0 170 -33 243t-106 73q-57 0 -95 -43q-33 -36 -33 -73v-1070q0 -71 -82 -161q-87 -96 -172 -96t-239 89q-182 105 -228 119q-15 4 -32 4q-79 0 -228 -98z" />
<glyph unicode="I" horiz-adv-x="2396" d="M301 1v1228q0 135 51 235q72 139 221 139q340 0 340 -283v-1123q18 -1 46.5 -0.5t67.5 0.5q10 127 28 180q33 104 117 138q61 25 112 25q76 0 120 -52q41 -48 41 -125q0 -96 -63 -184q-70 -98 -193 -144q7 -27 41 -78q36 -56 61 -72q33 -19 65 -19q50 0 104 53l92 101 q-107 -316 -284 -316q-9 0 -17 1q-67 6 -130 100q-60 89 -78 196h-355v1260q0 221 -115 221q-91 0 -147 -65t-56 -163v-1253h-69zM1124 280q0 -45 14 -89q70 2 135 72q62 67 62 126q0 60 -74 60h-9q-128 -11 -128 -169zM1247 1387q0 83 36 145q43 73 117 73q116 0 149 -94 q53 111 172 111q155 0 160 -137q87 78 131 103q65 38 156 46q19 2 37 2q85 0 132 -41q59 -51 59 -252v-1339h-254v1200q0 84 -3 132q-8 153 -137 153q-119 0 -120 -158v-194v-1133h-103v1129q0 -6 1 -13q1 12 1 63q0 68 -2 204q0 67 -28 106q-26 34 -63 34q-39 0 -67 -36 q-31 -39 -31 -104q0 -160 1 -181h-106v181q0 127 -75 127q-86 0 -86 -127v-181h-75q1 19 1 42t-1 49q-2 67 -2 90z" />
<glyph unicode="J" d="M-1162 -851q0 193 147 384q142 183 329 253q157 59 338 62l-134 -141q-49 19 -107 19q-345 0 -385 -411q-2 -19 -2 -37q0 -155 113 -267q106 -104 231 -104q91 0 147 64q62 72 62 209q0 88 -97 174q-94 84 -182 84h-4q66 45 429 45q275 0 275 -52v-561h-184v417 q0 70 -57 70q7 0 -51 -3q5 -29 5 -62q0 -180 -118 -336q-131 -174 -323 -177h-11q-172 0 -290 94q-131 103 -131 276z" />
<glyph unicode="K" d="M-1672 -476q0 115 81.5 207.5t187.5 92.5q172 0 172 -130v-335q0 14 85 25q96 12 103 15v165q0 104 116 194q110 86 220 86q166 0 227 -102q48 -81 48 -268v-547l114 100q39 35 71 35q35 0 98 -65q40 -41 64 -41q2 0 77 31q80 32 100 37l-121 -105q-72 -62 -134 -62 q-11 0 -42 21q-47 31 -67 41q-32 21 -46 21q-13 0 -39 -19q-52 -39 -75 -54h-172v542q0 278 -180 311q-17 3 -34 3q-69 0 -120 -40q-54 -43 -54 -104v-163q118 -5 175 -38q75 -43 90 -149v-163q0 -93 -68 -157q-62 -60 -136 -60q-89 0 -112 87v364q-155 -1 -188 -11v-422 h-189v638q0 98 -1 105q-8 81 -45 81q-156 0 -156 -169v-655h-50v657zM-992 -717v-266q18 -52 60 -52q29 0 51.5 28t22.5 74v88q-13 83 -32 101.5t-102 26.5z" />
<glyph unicode="L" d="M-1434 -472q0 112 80 202q85 96 205 96q75 0 102 -74q140 80 221 80q78 0 123 -68q40 -59 40 -141v-687q12 9 118 103q63 56 85 58q15 2 29 2q61 0 120.5 -47t114.5 -47q149 0 281 132l-145 -177q-83 -90 -198 -90q-40 0 -84 40q-65 59 -87 72q-5 3 -13 3 q-28 0 -114 -54.5t-105 -54.5h-174v742q0 117 -83 117q-44 0 -118 -31q9 -92 9 -125v-702h-161v682q0 171 -67 171q-4 0 -9 -1q-98 -16 -118 -143v-709h-52v651z" />
<glyph unicode="M" d="M-1194 -1061q0 196 103 383q108 197 293 309q123 75 281.5 124.5t279.5 49.5q230 0 230 -152q0 -104 -102 -212.5t-197 -108.5q-50 0 -85 31.5t-35 75.5q0 45 35 76.5t85 31.5q93 0 116 -81q73 61 73 114q0 54 -71 87q-67 31 -168 31q-158 0 -278 -72 q-157 -95 -278.5 -321t-121.5 -430q0 -164 88 -256q96 -100 286 -100h15q197 4 337 156q126 136 128 286h180v-88q-34 -177 -274 -314q-214 -123 -399 -123q-256 0 -396 150q-125 136 -125 353z" />
<glyph unicode="N" d="M-1088 -650q0 127 80 206l145 144q76 75 195 75q81 0 208 -29q170 -38 210 -44q1 51 1 125.5t-1 173.5h250v-288q28 -1 49 -1q61 0 89 14q5 2 55 42l39 39l16 -26q-23 -41 -83 -135q-68 -95 -165 -104v-463q0 -91 -25 -172q-21 -69 -48 -96q-141 -141 -326 -141 q-235 0 -476 249q-118 122 -165.5 217t-47.5 214zM-939 -541q0 -156 220 -485q78 -116 111 -148q50 -49 117 -49q99 0 164 94q73 106 77 270v401q-327 74 -481 74q-208 0 -208 -157z" />
<glyph unicode="O" horiz-adv-x="2120" d="M297 9q1 12 1 1143q0 471 448 471q253 0 253 -290v-1119q75 -69 278 -69q128 0 176 72q38 56 38 181q0 32 -3 104t-3 110q0 597 -41 639q-29 30 -91 30q-57 0 -125 -23q173 187 293 261q176 109 393 109q201 0 201 -278v-1345q0 -1 2 0q1 -1 -2 -1l2 1q-2 -1 -2 0 l-687 -331q-445 -232 -615 -490q87 44 289 88q210 45 344 45q46 0 75 -6q51 -11 169 -98q107 -79 174 -79q69 0 131 26q30 14 119 67l-100 -167q-51 -82 -106 -117q-68 -43 -175 -43q-67 0 -174 79q-118 87 -169 98q-32 7 -86 7q-156 0 -399.5 -48t-331.5 -95 q70 280 540 628q388 286 738 422v1v1218q0 282 -143 282q-114 0 -309 -167h11q64 0 97 -32q29 -30 46 -299q11 -188 11 -326q0 -233 -20 -336q-39 -193 -163 -277q-78 -53 -299 -53q-169 0 -222 21q-95 37 -95 167v1004q0 271 -174 271q-136 0 -188 -104q-37 -73 -37 -222 v-1130h-69z" />
<glyph unicode="P" horiz-adv-x="2117" d="M226 -1l162 215q81 107 240 107q59 0 326.5 -78t367.5 -78q84 0 104 42l1 1114q0 150 113 228q97 67 255 67q170 0 245 -76t75 -240v-1298h-250v1304q0 194 -167 194q-186 0 -212 -144v-1069q0 -66 -32 -140l-65 -132q-11 -22 -69 -22q-101 0 -422.5 82.5t-374.5 82.5 q-85 0 -139 -29q-32 -17 -77.5 -64t-80.5 -66z" />
<glyph unicode="Q" d="M-1385 -903q0 134 82 262q5 8 168 218q8 -5 8 -15q0 -17 -76.5 -124t-76.5 -176q0 -225 206 -225q21 0 47 2l30 3q-17 24 -17 61q0 91 78 187q82 102 171 102q16 0 31 -4q98 -24 98 -117q0 -128 -123 -272q24 -20 113 -20q79 0 182 55q115 61 115 132q0 133 -136 304 q-57 72 -69.5 103.5t-12.5 114.5l151 153q0 -117 47 -187l134 -158q34 -42 34 -109q0 -157 -147 -327q-152 -177 -311 -177q-83 0 -130 15q-36 12 -112 57q-148 -52 -249 -52q-94 0 -162 51q-73 55 -73 143zM-920 -844q0 -41 26 -72q37 -43 77 -43q34 0 57 29.5t23 70.5 q0 46 -32 83.5t-68 37.5q-34 0 -58.5 -32t-24.5 -74z" />
<glyph unicode="R" d="M-970 -354q1 51 44 68l132 63q78 36 136 36q71 0 74 -149q137 72 441 153q27 7 49 7q94 0 94 -156v-862h-187v823q0 89 -108 89q-75 0 -180 -40q-92 -35 -124 -63v-809h-165v721q0 187 -29 187q-4 0 -6 -1z" />
<glyph unicode="S" horiz-adv-x="2259" d="M194 -12q153 282 352 363q28 11 69 11q105 0 411.5 -110t413.5 -110q99 0 127 66q36 120 47 691q-113 83 -185 83q-191 0 -450 -235l94 142q71 100 144 155q98 75 212 82h14q79 0 174 -51q16 202 112 341q118 169 318 169q213 0 213 -211v-704q74 1 132 61l101 -159 q-99 -86 -213 -86q-10 0 -20 1v-486h-250v589q-110 73 -291 225q-2 -189 -11 -308q-17 -234 -71 -302l-83 -113q-65 -77 -123 -86q-36 -5 -79 -5q-216 0 -504 108l-201 79q-85 32 -133 32q-63 0 -133 -52q-61 -46 -187 -180zM1729 1003l281 -220v499q-2 107 -12 140.5 t-45 52.5q-28 16 -54 16q-94 0 -140 -208q-30 -135 -30 -271v-9z" />
<glyph unicode="T" d="M-1656 -536q0 133 57 226q68 110 195 110q168 0 168 -239v-483q0 -48 54 -105q20 -21 153 -21q123 0 181 12q3 11 3 45v211q1 10 1 18q0 57 -65 57h-129q18 197 22 229q14 94 44 130q108 176 345 176q109 0 158.5 -47.5t49.5 -156.5v-749q32 44 94 96q30 26 51 26 q22 0 68 -36q50 -39 56 -39q2 0 21 17q23 20 38 30q36 24 92 24q10 0 21 -1h-5q-32 0 -104 -64q-10 -9 -67 -70q-31 -33 -49 -33q-7 0 -34 20q-31 23 -35 25q-41 19 -47 19q-27 0 -100 -70h-177v782q-16 115 -142 115q-43 0 -95 -26.5t-73 -62.5q-33 -56 -33 -234v-21 q5 4 55 0q62 -5 58 -5q60 0 60 -60v-312l-147 -131q-59 -52 -227 -52q-137 0 -211 31q-65 55 -73 107v553q0 178 -86 178q-87 0 -87 -219v-638h-59v638z" />
<glyph unicode="U" horiz-adv-x="2049" d="M300 -3v1183q0 203 62 303q79 129 273 129q231 0 231 -250v-1247q-1 0 17 -1t36 -1q237 0 310 140q2 3 -47 3h-31q-92 0 -141 6l80 51h263q-55 -114 -186 -210q-139 -103 -261 -103h-303v1222q0 257 -123 257q-64 0 -98 -104q-30 -90 -30 -230v-1148h-52zM525 -968 q157 303 476 545q214 163 520 308q260 124 265 133h1l3 31v1390q0 86 -94 86t-94 -86v-234h-105v234q0 89 -80 89q-81 0 -81 -89v-234h-77v234q0 188 163 188q59 0 90 -36l39 -58l53 57q46 37 119 37q17 0 54.5 1.5t57.5 1.5q96 0 143 -32q63 -44 63 -159v-1424l-299 -109 q-311 -121 -535 -266q-317 -203 -448 -442q280 141 499 141q93 0 179 -24q30 -9 169 -71q103 -46 175 -46q66 0 130 36l119 77l-148 -245q-77 -47 -110 -61q-53 -21 -122 -21q-72 0 -175 39q-134 50 -169 58q-82 18 -258 18q-398 0 -523 -67z" />
<glyph unicode="V" horiz-adv-x="790" d="M-751 -639q0 199 153 316q99 75 348 158v172h251v-132q125 30 149 46q47 33 47 132v1284q0 115 100 193q90 70 196 70q135 0 217 -78q78 -74 78 -184v-1351h-254v1303q0 94 -12 126q-22 61 -97 61q-76 0 -107 -23q-49 -36 -49 -145v-1279q-16 -115 -88 -165l-180 -90 v-744q0 -300 -87 -333q-82 -31 -163 -31q-248 0 -378 246q-124 236 -124 448zM-688 -685q0 -139 134 -305q131 -160 228 -160q75 0 75 120q0 19 -2 40v712q-236 -56 -317 -118q-118 -89 -118 -289z" />
<glyph unicode="W" d="M-1542 -797q96 350 297 493q153 108 392 108q73 0 201 -11.5t178 -11.5q120 0 175 45q66 54 66 190h233q0 -227 -107 -311q-63 -50 -175 -50q-72 0 -251 31.5t-275 31.5q-192 0 -315 -101q-154 -125 -229 -420q-18 -74 -18 -155q0 -228 129 -399q139 -185 353 -190h24 q286 0 471 183q139 137 205 353h190q-48 -259 -308 -444q-256 -184 -574 -195h-24q-176 0 -342 98q-185 111 -269 296q-55 123 -55 259q0 96 28 200z" />
<glyph unicode="X" horiz-adv-x="1919" d="M200 -3v1183q0 209 52 303q71 129 263 129q123 0 191 -77q60 -68 60 -173v-1247q139 0 191 14q102 28 124 123q0 1 -2 2q1 0 -30.5 -6t-63.5 -6q-22 0 -44 3l134 73h163q-51 -107 -182 -209q-141 -109 -250 -109h-303v1222q0 257 -123 257q-64 0 -98 -104 q-30 -90 -30 -230v-1148h-52zM762 -616q0 218 112 330q97 97 313 185q204 84 361 101h2v1451q0 86 -94 86t-94 -86v-204h-105v204q0 89 -80 89q-81 0 -81 -89v-204h-77v204q0 188 163 188q59 0 90 -36l39 -58l53 57q46 37 119 37q17 0 54.5 1.5t57.5 1.5q96 0 143 -32 q63 -44 63 -159v-1424q5 2 178 35l-42 -123q-11 -12 -135 -41q4 -135 7 -270v-31q0 -138 -16 -238q-21 -127 -255 -310q-230 -180 -359 -180q-136 0 -294 157q-123 123 -123 358zM913 -446q0 -167 146 -331q152 -171 324 -171q48 0 93 16q88 106 88 265q0 40 -7 139 q-6 105 -7 172l-2 230l-265 -37q-172 -25 -256 -77q-114 -70 -114 -206z" />
<glyph unicode="Y" d="M-1510 -466q0 118 63 194q71 85 198 85q135 0 135 -215v-564q6 -43 17 -51q39 -28 86 -28q27 0 27 20v594q0 88 77 170t165 82q47 0 86 -29q66 -49 66 -165v-545q0 -98 23 -118q45 -29 75 -29q65 0 65 162q0 5 -3.5 123t-3.5 199q1 118 8 181q10 84 103 148q87 59 175 60 h4q83 0 115 -44q29 -40 29 -133v-754h-185v671q0 70 -1 79q-8 78 -66 78q-10 0 -22 -2q-93 -15 -93 -120q0 -12 1 -40.5t1 -44.5v-342q0 -94 -4 -118q-30 -179 -291 -179q-76 0 -98 31q-17 24 -17 108v545q0 171 -76 171q-78 0 -78 -98v-594q0 -70 -63 -115 q-57 -41 -128 -41q-87 0 -117 15q-46 23 -46 97v537q0 188 -68 188q-72 0 -93 -69q-10 -34 -10 -125v-632h-56v657z" />
<glyph unicode="Z" d="M-1290 -433q0 106 75 176q79 75 211 75q149 0 149 -145v-725q187 0 234 80q-4 2 -30 2h-20q-60 0 -91 3l51 30h170q-36 -66 -120 -122q-90 -60 -168 -60h-196v710q0 150 -79 150q-45 0 -88.5 -61.5t-43.5 -132.5v-668h-54v688zM-583 -325q0 51 42 95t93 44q38 0 58 -21 l25 -34q61 55 161 55h29q20 1 31 1q144 0 145 -160v-778h-184v798q0 89 -72 89q-73 0 -77 -89v-136h-68v136q0 84 -66 84q-67 0 -67 -84v-136h-50v136z" />
<glyph unicode="[" horiz-adv-x="1321" d="M305 8v1208q0 389 240 389q108 0 171 -64q45 -46 53 -103q147 120 152 123q71 44 188 44q142 0 187 -131q26 -74 26 -255v-2382q1 -3 4 -3q5 0 35 11.5t44 11.5t20 -9l-346 -212v2583q0 107 -13 143q-25 72 -114 76h-5q-65 0 -121 -68q-59 -71 -59 -144v-1218h-148v1218 q0 89 -28 148q-30 64 -83 64q-98 0 -98 -222v-1208h-105z" />
<glyph unicode="\" horiz-adv-x="979" d="M-1928 -622q0 42 6 86q22 161 170 279q57 46 195 115l-129 -137q-83 -92 -102 -173q-13 -55 -13 -105q0 -286 401 -416q275 -89 653 -89q382 0 589 56q349 94 396 356v1892q0 210 92 340q108 152 321 152q154 0 243 -146q79 -128 78 -310v-1861h-269v1861v12 q0 90 -56 188q-63 109 -131 109q-148 0 -151 -345v-1899q-41 -173 -264 -327q-184 -127 -389 -181q-229 -61 -564 -61q-444 0 -724 124q-352 156 -352 480z" />
<glyph unicode="]" horiz-adv-x="397" d="M-2144 -582q0 174 148 306q100 88 301 177q-166 -97 -246 -181q-116 -122 -116 -265q0 -281 450 -439q344 -121 713 -121q413 0 692 77q441 121 441 413q0 175 -134 298q-120 111 -258 111q-61 0 -103 -28v240h256v-76q35 8 70 8q141 0 248 -109.5t107 -254.5 q0 -458 -525 -657q-363 -138 -917 -138q-749 0 -1020 355q-107 140 -107 284z" />
<glyph unicode="^" horiz-adv-x="2351" d="M306 7v1185q20 174 173 285q149 108 306 108q174 0 202 -189q4 -27 4 -153v-1022q33 -114 201 -121v107l-105 -44q34 59 101 96q51 27 157 59v-211q97 8 162 8q34 0 60 -2q27 -3 27 4q0 -14 -4 -14q-7 0 -31 61q-35 92 -35 127v880q24 188 97 250q75 79 115 105 q62 40 151 46q79 6 246 7h54q149 0 159 -10q3 -3 3 -8q0 -9 -321 -386t-365 -421q151 -109 384 -371q189 -213 304 -376h-308q-249 299 -346 390l-118 104l-2 -158v-10q0 -94 19 -116l139 -157q2 -3 2 -4q0 -31 -392 -42v-63q68 16 69 18q13 3 74 16l-296 -203v230 q-339 3 -384 49q-49 32 -61 47q-20 25 -20 73v1044q-17 101 -45 141q-39 55 -127 55q-80 0 -136 -75q-54 -71 -54 -166v-1173h-59zM1584 739q99 102 271 316q102 141 267 348q-200 17 -230 17q-193 0 -267 -94q-30 -63 -40 -192q-2 -23 -2 -160q0 -92 1 -235z" />
<glyph unicode="_" horiz-adv-x="138" d="M-1575 2080q0 218 282 462q250 216 471 271q109 27 229 27q273 0 406 -130q93 -91 93 -192q0 -181 -217 -380l-345 -288q86 91 279 276q110 129 110 237q0 98 -87 183q-150 146 -409 146q-244 0 -437 -122q-203 -128 -203 -310q0 -119 95 -238q49 -61 131 -78 q32 -7 130 -9q22 -1 39 -1q71 0 81 10l2 2l7 -6l-1 -1l-167 -164q-19 -19 -72 -19q-66 0 -167 30q-110 33 -150 72q-100 98 -100 222zM-1123 2266q0 28 7 53q14 51 67 89.5t106 38.5q142 0 142 -120q0 -42 -20 -86q23 -10 51 -10q143 0 304 222q-81 -163 -112 -196 l-170 -137q-55 -44 -138 -44q-90 0 -160 49q-77 54 -77 141z" />
<glyph unicode="`" d="M-2045 -1345q0 141 130 256q113 98 264 135q-113 -38 -204 -147q-97 -115 -97 -230q0 -304 493 -468q361 -120 749 -120q766 0 766 317q0 298 -341 298v204h185v-88q21 5 44 5q107 0 193.5 -89.5t86.5 -200.5q0 -539 -1083 -539q-410 0 -742 135q-444 182 -444 532z" />
<glyph unicode="a" horiz-adv-x="2351" d="M300 0v1189q0 179 101.5 291t266.5 112q125 0 203 -98q68 -86 68 -197v-873q0 -83 14 -125q17 -51 69 -97q69 -60 141 -60q58 0 96 42.5t38 120.5v822q0 189 33 283q52 148 199 174q31 5 57 5q119 0 188 -135q97 84 158 115q86 44 194 44q132 0 181 -91q30 -56 44 -211 v-1308h-252v1255q-3 104 -52 166q-21 27 -66 27q-40 0 -107 -23l-87 -31q17 -44 30 -139v-1255h-229v1203q0 255 -77 255q-49 0 -99 -48q-56 -54 -56 -126v-905q0 -153 -28 -187l-112 -139q-60 -58 -151 -58q-72 0 -149 26q-91 31 -147 105t-56 170v859q0 133 -39 196 q-45 74 -154 74q-163 0 -163 -294v-1134h-57z" />
<glyph unicode="b" horiz-adv-x="2286" d="M302 1235q0 192 63 277q75 100 262 100q125 0 201 -77q70 -71 70 -173v-1247h194q60 0 111 52q41 41 41 61q-79 2 -163 5l4 47q-8 1 271 1q-44 -92 -199 -227q-62 -54 -219 -54h-303v1222q0 253 -118 253q-60 0 -110 -70q-52 -73 -52 -170v-1238h-53v1238zM1137 1387 q0 83 36 145q43 73 117 73q116 0 149 -94q53 111 172 111q155 0 160 -137l75 75q36 33 83 47q59 16 177 16q180 0 180 -280v-1339h-254v1200q0 84 -3 132q-8 153 -137 153q-119 0 -120 -158v-1327h-103v1383q-2 140 -92 140q-39 0 -67 -36q-30 -39 -30 -104q0 -160 1 -181 h-106v181q0 127 -75 127q-86 0 -86 -127v-181h-75q1 19 1 42t-1 49q-2 67 -2 90z" />
<glyph unicode="c" horiz-adv-x="2209" d="M298 7v1073q0 188 93 346q110 187 289 187q123 0 193 -138q56 -109 58 -241v2v-117v-420h1q100 0 274 -211l233 -295q39 -40 138 -40h10v1029q-12 95 -332 114q181 137 352 208l209 70q109 38 191 38q202 0 202 -226v-1389h-254v1250q0 116 -47 167q-42 38 -121 38 q-124 0 -401 -121q124 -7 183 -37q89 -45 89 -155v-918q-19 -99 -80 -158q-66 -62 -165 -62q-56 0 -106 52q-37 39 -173 239q-104 155 -203 212v-164v-294l-94 -28q-72 -21 -119 -21q-61 0 -94 33q-119 120 -119 228q0 145 29 224q43 118 165 179q1 89 1 197.5t-1 235.5 q-2 176 -11 223q-27 145 -130 145q-89 0 -153 -106q-59 -99 -59 -217v-1132h-48zM561 293q0 -115 101 -115q22 0 37 30v389q-63 -23 -104 -137q-34 -93 -34 -167z" />
<glyph unicode="d" horiz-adv-x="2207" d="M337 0v1150q0 468 340 468q127 0 198 -85q64 -76 64 -190v-930q0 -229 139 -229q31 0 70 105q25 68 36 122l150 131q0 -11 -2.5 -68t-2.5 -93q0 -143 35 -178.5t157 -35.5q53 0 81 8v1149q-38 39 -105 39q-24 0 -76 -6q-60 -7 -91 -8q78 78 309 168q227 88 340 88 q127 0 174 -55q38 -44 53 -171v-1379h-254v1261q-2 122 -29 157q-32 41 -145 48q-20 1 -38 1q-57 0 -120 -19l-161 -50l153 -8q74 -15 74 -89v-6v-960q-10 -195 -81.5 -266.5t-222.5 -71.5q-117 0 -154 84q-21 48 -21 176q-93 -147 -132 -184q-75 -71 -195 -71 q-123 0 -156 80q-18 43 -18 192v930q0 135 -17 199q-27 96 -101 96q-113 0 -155 -64.5t-50 -245.5v-1189h-46z" />
<glyph unicode="e" horiz-adv-x="138" d="M-1590 2080q0 215 273 457q247 218 480 276q112 28 232 28q269 0 403 -131q91 -89 91 -202q0 -175 -211 -389q-159 -161 -349 -269l241 234q147 159 147 282q0 96 -86 180q-150 146 -409 146q-219 0 -411 -105q-229 -126 -229 -327q0 -165 139 -262q113 -78 246 -78 q67 0 91 24l2 2l7 -6l-1 -1l-167 -164q-25 -25 -88 -25q-131 0 -255 84q-146 99 -146 246z" />
<glyph unicode="f" horiz-adv-x="2264" d="M312 0v1149q2 171 104 305q108 142 260 142q147 0 224 -120q58 -91 58 -203v-1084q13 -54 53 -54q73 0 238 183l189 223v619q0 225 144 344q130 108 345 108q174 0 263 -124q74 -103 74 -258v-1230h-255v1113q0 167 -31 242q-51 126 -201 126q-225 0 -272 -314v-547 q53 33 100 33q90 0 144 -112q46 -95 46 -210q0 -195 -189 -306q-41 -24 -102 -24q-66 0 -66 43v407l-220 -260q-178 -191 -275 -191h-217v1134q0 139 -27 199q-43 95 -168 95q-77 0 -127 -96q-42 -81 -43 -170v-1162h-49zM1505 75q8 -1 16 -1q46 0 80 51.5t34 127.5 q0 81 -27 148q-35 88 -103 96v-422z" />
<glyph unicode="g" horiz-adv-x="2017" d="M239 1293q2 87 60 119l176 116q105 67 188 67q56 0 74 -96q7 -35 9 -135q436 230 552 230q81 0 90 -207l4 5l241 124q174 78 295 78q89 0 89 -269v-6v-1319h-252v1270q0 165 -59 165q-6 0 -14 -2q-165 -40 -313 -114v-1319h-239v1180q0 121 -1 132q-8 94 -47 100 q-185 -45 -346 -123v-1289h-238v1270q0 168 -25 168q-5 0 -11 -6z" />
<glyph unicode="h" horiz-adv-x="1187" d="M173 815q0 101 42 212l2 3l114 296q45 118 151 195t230 77q167 0 257 -120q80 -108 80 -285q0 -274 -247 -627q-28 -40 -224 -294q70 7 127 7q111 0 171 -28q145 -68 232 -295q74 -191 74 -379q0 -633 -434 -971q-96 -75 -130 -86q418 366 418 884q0 37 -2 75 q-8 138 -91 299q-90 176 -202 230q-61 29 -186 29q-131 0 -276 -27l158 241q146 127 291 336q195 281 195 475q0 117 -78.5 201t-193.5 84q-95 0 -196 -58q-93 -54 -156 -135q-3 -28 -3 -53q0 -41 9 -74l-120 -309q-12 45 -12 97z" />
<glyph unicode="i" horiz-adv-x="138" d="M-841 2119q0 101 94 212t212 143q38 10 73 10q89 0 157 -67q42 -42 42 -94q0 -84 -104 -187q-74 -74 -171 -133q124 124 124 194q0 42 -36 75q-81 72 -166 72q-75 0 -75 -85q0 -89 62 -111q27 -9 138 -9l-150 -151q-87 0 -85 0q-49 4 -76 32q-39 39 -39 99z" />
<glyph unicode="j" horiz-adv-x="2290" d="M305 0v1215q13 117 94 214q78 94 192 136q119 44 191 44q133 0 179 -114q29 -71 29 -229v-1062q13 -45 49 -74q68 -55 227 -55q38 0 80 3q98 7 207 31q-28 9 -55 53q-35 57 -35 122v910q20 160 110 269q99 121 253 132q110 8 243 8h30q189 0 189 -19l-686 -837 q133 -79 397 -384q191 -222 291 -363h-257q-100 128 -256 297q-179 194 -259 247l-2 -168v-24q0 -123 19 -142l169 -168q2 -2 2 -4q0 -15 -112 -26q-123 -12 -310 -12q-433 0 -477 44q-49 33 -59 46q-21 25 -21 74v1084q-16 94 -43 135q-39 59 -119 59q-102 0 -149 -71 q-33 -50 -52 -168v-1203h-59zM1522 951l1 -219l270 345q159 203 278 329q-203 17 -239 17q-139 0 -258 -55q-52 -110 -52 -406v-11z" />
<glyph unicode="k" horiz-adv-x="2571" d="M305 0v1167q16 178 80 266q136 186 306 186q93 0 176.5 -65.5t104.5 -156.5q15 -64 15 -151v-409q138 43 146 45q76 20 154 23v394q0 135 103 221q97 81 236 81q154 0 230 -51q67 -45 139 -182q79 124 154 179q94 69 224 69q86 0 141.5 -50.5t55.5 -136.5v-1429h-254 v1269q0 90 -68 157q-20 20 -51 20q-57 0 -118.5 -56.5t-61.5 -105.5v-1284h-186v1104q0 151 1 151l1 -11q-3 78 -29 104q-89 161 -222 161q-72 0 -138 -49q-70 -52 -81 -121v-446l108 -28q81 -23 96 -37q104 -100 104 -317q0 -98 -25 -198q-32 -127 -89 -173l-116 -92 q-73 -58 -101 -58q-53 0 -53 129v620q-51 12 -150 15q-29 1 -54 1q-62 0 -96 -7v-748h-247v1055q0 145 -9 203q-23 147 -146 174q-18 4 -35 4q-79 0 -130 -73.5t-51 -186.5v-1176h-64zM1363 123q13 -10 25 -10q50 0 76 142q18 99 18 195q0 103 -16 152q-26 82 -103 103v-582 z" />
<glyph unicode="l" horiz-adv-x="2244" d="M295 -4v1209q0 137 84 252q101 138 273 150q56 4 104 -44q43 -43 55 -99l106 85q91 65 168 63q75 -2 119 -76q41 -68 35 -159v-1198q0 -54 67 -90q62 -33 142 -33q100 0 141 52v1048q-2 18 -2 37q0 146 75 256q93 138 270 138q312 0 312 -355v-1233h-253v1254 q0 198 -156 198q-57 0 -112 -57q-69 -71 -69 -185v-1029q2 -18 2 -33q0 -89 -73 -123q-50 -23 -260 -23q-127 0 -174 15q-79 24 -96 104v1090q0 93 -4 124q-11 70 -50 110q-23 23 -54 23q-62 0 -137 -79v-1389h-204v1226q0 65 -2 88q-3 37 -32 78q-32 48 -70 48 q-120 0 -148 -238v-1205h-57z" />
<glyph unicode="m" horiz-adv-x="2073" d="M301 5v1038q0 77 53.5 191.5t118.5 177.5q178 172 413 172q117 0 230 -76l-146 -146q-102 -37 -102 -125q0 -45 37 -82q11 -11 59 -13q13 -1 30 -1q26 0 60 2q65 3 67 3q-125 -106 -205 -253q-89 -160 -89 -312q0 -185 134 -317q50 -50 171 -82q110 -29 218 -29 q45 0 78 6q27 120 27 230v22q-5 200 -5 650q0 247 53 361q74 160 276 160q294 0 294 -272v-1310h-254v1171q0 142 -29.5 196.5t-107.5 54.5q-64 0 -114 -110t-50 -243v-670q0 -132 -63 -235l-63 -103q-47 -78 -183 -78q-104 0 -224 44q-113 41 -169 92q-61 57 -104 173 q-39 106 -41 200v11q0 246 267 513q-103 0 -145 42q-48 48 -48 112q0 57 41 98l128 128q-75 39 -159 39q-142 0 -271 -104q-43 -35 -78 -108q-40 -81 -40 -153v-1065h-65z" />
<glyph unicode="n" horiz-adv-x="2118" d="M317 0v1242q0 384 253 384q192 0 264 -72q77 -78 77 -289v-417q46 19 170 28q137 11 180 22v321q0 188 128 311q125 119 309 119q420 0 420 -400v-1249h-252v1204q0 153 -35 220q-50 98 -192 98q-135 0 -215 -89q-75 -84 -75 -214q1 -67 1 -147.5t-1 -173.5 q157 -14 249 -124q90 -108 89 -280v-8q-2 -186 -99 -324q-112 -159 -296 -159h-31v754q-142 13 -231 13q-90 0 -119 -13v-757h-233v1265q0 237 -108 237q-129 0 -173 -79q-31 -54 -31 -181v-1242h-49zM1349 95q13 -9 26 -9q48 0 88 111q38 105 38 220q0 270 -152 272v-594z " />
<glyph unicode="o" horiz-adv-x="1324" d="M191 13q434 331 616 929q39 128 39 263q0 215 -130 215q-10 0 -29 -3t-29 -3q-13 -31 -19 -55l-368 -280q24 104 74 194q61 109 249 218q185 107 303 107q86 0 138 -106q42 -86 42 -181q0 -245 -194 -593q-174 -312 -336 -440q30 6 59 6q57 0 161 -36q91 -32 179 -32 q150 0 243 91l127 148l-157 -320q-63 -119 -190 -131h-2q-24 0 -185 37q-177 41 -252 41q-171 0 -339 -69z" />
<glyph unicode="p" horiz-adv-x="2216" d="M367 1153q0 200 49 287q72 131 278 131q118 0 202 -81q78 -74 78 -162v-1142q-2 -5 -2 -9q0 -36 96 -67q105 -33 238 -33q193 0 272 74v1036q-1 25 -1 49q0 201 87 280q76 69 252 69q153 0 232 -77q69 -67 70 -176q2 -242 2 -575t-2 -757h-253v1146q0 14 3 58t3 71 q0 191 -134 191q-200 0 -200 -255v-977q-11 -83 -31 -106l-67 -79q-27 -26 -80 -45h-583q-155 77 -155 183v1002q0 136 -7 174q-22 110 -104 110q-174 0 -174 -320v-1145h-69v1145z" />
<glyph unicode="q" horiz-adv-x="2211" d="M291 1v1228q0 135 51 235q72 139 221 139q340 0 340 -283v-1123q18 -1 46.5 -1t67.5 1q10 127 28 180q33 104 117 138q57 23 107 23q81 0 129 -59q45 -56 45 -142q0 -102 -61 -192q-68 -100 -189 -145q9 -33 37 -86q33 -64 57.5 -79.5t49.5 -15.5q52 0 110 75l95 126 q-57 -170 -85 -219q-80 -148 -194 -148q-8 0 -16 1q-74 6 -143 112q-71 108 -71 228v7h-355v1260q0 221 -115 221q-91 0 -147 -65t-56 -163v-1253h-69zM1114 280q0 -45 14 -89q18 -6 37 -6q63 0 115 64q48 60 48 123q0 77 -78 77h-8q-128 -11 -128 -169zM1347 1206v171 q0 88 45 152q48 70 128 74h12q95 0 127 -92q62 73 130 88q16 4 113 4q179 0 258 -112q53 -77 53 -192v-1298h-251v1298q0 209 -128 209q-126 0 -134 -131q-2 -31 -2 -68q0 -47 3 -103h-106v171q0 117 -73 117h-2q-52 -1 -67 -33q-2 -4 -19 -84v-171h-87z" />
<glyph unicode="r" horiz-adv-x="1620" d="M254 1252q2 66 60 99l216 143q129 82 231 82q87 0 91 -218q254 145 572 235q38 11 69 11q79 0 108 -77q19 -51 19 -163v-1365h-254v1298q0 143 -79 143q-46 0 -226 -67.5t-209 -96.5v-1277h-237v1159q0 154 -6 206q-7 68 -32 68q-6 0 -9 -2z" />
<glyph unicode="s" horiz-adv-x="2166" d="M297 1155q0 426 381 426q294 0 384 -144q42 -66 42 -220v-755q66 -104 182 -204q120 -104 182 -104q34 0 39 38q6 120 6 130v893q0 178 95.5 282.5t254.5 104.5q304 0 304 -322l-1 -1282h-252v1270q0 195 -151 195q-64 0 -122 -55.5t-58 -119.5v-827q0 -453 -230 -453 q-8 0 -17 1q-45 3 -105 61q-6 5 -133 142q1 -10 1 -20q0 -190 -238 -190q-20 0 -53.5 1.5t-43.5 1.5q-131 0 -193 224q-40 146 -40 311q0 25 1 51q7 196 178 199h1q27 0 79 -74q70 -98 72 -100v620q0 91 -37 159q-50 92 -155 92q-165 0 -240.5 -80.5t-75.5 -251.5v-1150h-57 v1150zM647 482q0 -94 68 -230q59 -119 85 -131q18 -8 25 -8q39 0 39 165q0 39 -2 86l-77 129q-62 97 -88 97q-7 0 -12 -7q-38 -34 -38 -101z" />
<glyph unicode="t" horiz-adv-x="2431" d="M324 -1v1273q0 110 59 197q74 110 210 110q220 0 283 -112q27 -49 27 -195v-1016q-1 -7 -1 -13q0 -142 296 -142q138 0 271 25l2 362q-3 226 -36 266q-29 36 -116 40h-6q-23 0 -123 -3v485q25 152 129 236q99 81 245 81q95 0 180 -37q101 -43 121 -114l36 36 q52 52 151 94t171 42q208 0 208 -288v-1325h-254v1289q2 156 -131 156q-74 0 -172 -48q13 -199 14 -199v3v-1201h-77v1273q-13 82 -97 129q-73 42 -166 42q-68 0 -134.5 -50.5t-78.5 -114.5v-412q33 6 62 6q109 0 168 -74q48 -60 48 -144v-649h-617q-217 0 -270 53 q-60 60 -60 197v1015q0 184 -123 184q-94 0 -128 -60q-22 -39 -22 -124v-1273h-69z" />
<glyph unicode="u" horiz-adv-x="286" d="M-254 7h254v-869q0 -19 -2 -60t-2 -63q0 -186 158 -186h3q88 1 116 111q15 58 15 198v556q0 109 -30 237q-29 123 -64 172q90 -84 144 -233q43 -118 44 -204v-683q0 -141 -83.5 -219t-238.5 -78q-141 0 -222 78q-92 87 -92 259v984z" />
<glyph unicode="v" horiz-adv-x="2901" d="M302 -3v1188q0 215 46 304q69 133 270 133q118 0 187 -79q63 -73 63 -181v-1247h194q10 0 86.5 44t76.5 53l-100 3q-33 1 -63 5l101 67q51 -6 163 -6q-49 -103 -175 -190q-131 -91 -243 -91h-303v1262q0 207 -123 207q-128 0 -128 -284v-1188h-52zM1159 1206v201 q0 215 161 215q100 0 139 -111l57 74q41 37 165 37q108 0 158 -38q55 -43 62 -148l176 109q127 77 172 77q97 0 125 -132l166 82q106 50 171 50q116 0 158 -68q32 -53 32 -183v-1370h-251v1321q0 168 -70 168h-7q-55 -16 -192 -52v-1437h-216v1231q0 129 -3 153 q-8 64 -45 78q-3 1 -8 1q-26 0 -105 -32q-103 -41 -103 -81v-1350h-216v1425q0 107 -77 107q-40 0 -73 -34q-35 -38 -35 -92v-201h-105v201q0 64 -9 87q-15 40 -66 40q-86 0 -86 -127v-201h-75z" />
<glyph unicode="w" horiz-adv-x="2143" d="M306 -1v1217q0 191 81 283q88 100 280 100q144 0 217 -88q63 -78 63 -208v-1159q30 -28 181 -28q126 0 245 19q128 20 150 48q15 16 15 114v825q0 114 -15 129q-39 40 -173 40q-75 0 -113 -13q171 132 364 225q219 104 363 104q97 0 148 -50q30 -30 30 -153v-1403h-252 v1370q9 99 -86 99q-71 0 -203 -57l-162 -77q111 3 138 -23q16 -16 16 -92v-1009q-16 -45 -46 -76l-77 -72q-61 -61 -365 -61q-167 0 -281 25q-130 29 -130 81v1165q0 97 -44 149q-39 46 -100 46q-67 0 -119 -53q-56 -56 -56 -141v-1276h-69z" />
<glyph unicode="x" horiz-adv-x="2141" d="M300 8v1176q0 247 98 341q69 67 214 67q283 0 283 -313v-894q0 -177 27 -210q77 -67 237 -78q0 8 9.5 58.5t9.5 75.5q0 24 -8.5 32.5t-22.5 8.5q-33 0 -98 -50q4 41 73 106t117 65q32 0 54 -35q20 -31 20 -65q0 -54 -41 -189q89 7 219 25q15 62 15 156v928q0 379 301 379 q193 0 267 -74q67 -67 67 -232v-1285h-258v1285q0 97 -15 135q-26 65 -107 65q-6 0 -22 1.5t-26 1.5q-133 0 -133 -276v-892q0 -101 -28 -140l-104 -145q-8 -12 -86 -23l-107 -15q-3 -37 -2 -67q0 -106 36 -106q44 0 134 44q-88 -87 -108 -103q-67 -49 -142 -49 q-73 0 -77 76v17q0 82 34 180q-157 9 -292 65q-176 73 -176 191v1033q0 75 -34 137q-38 70 -95 70q-177 0 -177 -254v-1224h-56z" />
<glyph unicode="y" horiz-adv-x="2503" d="M306 7v1147q0 213 52 303q73 128 280 128q119 0 177 -131q43 -97 43 -223v-958q0 -118 175 -118q22 0 50 2q3 23 3 28v1017q0 172 72 273q83 118 249 118q102 0 170 -90q61 -81 61 -175v-1025q0 -83 28 -116q29 -26 96 -26q56 0 110 16q25 41 28 51q3 17 3 120v771 q0 223 61 326q81 135 291 135q146 0 203 -79q45 -63 45 -205v-1295h-253v1266q0 191 -115 191q-59 0 -106 -60q-51 -65 -51 -161v-958q0 -88 -79 -162q-72 -66 -163 -86q-122 -26 -177 -26q-154 0 -154 179v1005q0 264 -99 264q-151 0 -151 -224v-966q0 -114 -76 -186.5 t-190 -72.5q-110 0 -160 17q-83 30 -83 117v1014q0 312 -80 312q-195 0 -195 -232q0 -18 1.5 -42.5t1.5 -28.5v-1154h-68z" />
<glyph unicode="z" horiz-adv-x="2084" d="M300 -3v1183q0 203 62 303q79 129 273 129q231 0 231 -250v-1247q-1 0 17 -1t36 -1q237 0 310 140q2 3 -46 3h-32q-92 0 -141 6l80 51h263q-55 -114 -186 -210q-139 -103 -261 -103h-303v1222q0 257 -123 257q-64 0 -98 -104q-30 -90 -30 -230v-1148h-52zM1304 1183v234 q0 188 163 188q59 0 90 -36l39 -58l53 57q46 37 119 37q17 0 54.5 1.5t57.5 1.5q96 0 143 -32q63 -44 63 -159v-1424h-251v1424q0 86 -94 86t-94 -86v-234h-105v234q0 89 -80 89q-81 0 -81 -89v-234h-77z" />
<glyph unicode="{" horiz-adv-x="1325" d="M320 18v1110q1 171 68 296q76 139 199 139q46 0 108 -58q58 -57 64 -98q137 120 146 126q70 44 185 44q232 0 232 -414v-2404h-245v2404q0 137 -11 177q-27 97 -128 97q-100 0 -140.5 -46t-40.5 -151v-1222h-148l1 1207q0 56 -31 93q-28 34 -66 34q-82 0 -82 -130v-6 v-1198h-111zM591 1804q-1 -103 152 -103q24 0 66 2.5t57 2.5h17q118 0 151 26q33 27 33 127v12q-1 72 -14 102q-24 59 -98 59h-5h-30q-111 0 -162 27q-37 20 -37 79q0 80 49 80h5q41 5 55 5q59 0 59 -38q0 -7 -2 -15h142q-2 92 -76 93q-11 0 -57 2q-42 2 -70 2 q-218 0 -221 -120v-10q0 -134 104 -142q65 -2 131 -5q85 -11 85 -67q0 -94 -8 -127q-4 -17 -35.5 -32t-63.5 -15q-59 0 -64 55h-163z" />
<glyph unicode="|" horiz-adv-x="142" d="M-271 -1119h184v-741q0 -91 43 -139q35 -40 83 -40q130 0 130 220v313q0 248 -100 386q97 -39 153 -189q47 -123 47 -250q0 1 2 2q6 0 6 -52q0 -61 -8 -192q-7 -127 -75 -260q-83 -163 -194 -163q-128 0 -203 93q-68 84 -68 205v807z" />
<glyph unicode="}" horiz-adv-x="317" d="M-1959 -1361q0 105 101 210l178 161q-56 65 -56 156q0 114 89 263q73 122 125 174q85 86 186 86q217 0 217 -129q0 -93 -110 -239q-87 -115 -183 -194q255 -216 747 -216q904 0 904 461q0 131 -112 267q-120 146 -259 146q-64 0 -123 -35v261h255v-98q38 8 74 8 q142 0 237 -116q89 -110 89 -258q0 -280 -239 -476q-199 -163 -503 -229q-290 -63 -595 -63q-176 0 -336 22q-235 32 -363 164q-125 -198 -125 -264q0 -111 219 -111q242 0 380 140q-35 -80 -125.5 -154.5t-178.5 -98.5q-98 -26 -199 -26q-122 0 -190 42q-104 65 -104 146z M-1569 -527v-15q0 -170 112 -289q64 33 116 95q60 71 60 136q0 50 -37 87t-124 37q-101 0 -127 -51z" />
<glyph unicode="~" d="M-1682 -2205q0 10 2 20q14 72 66 125q12 12 113 92q-45 42 -45 97q0 95 91.5 190t189.5 95q160 0 160 -102q0 -61 -75 -121q-46 -38 -142 -110q213 -143 660 -143q255 0 473 96q283 124 283 352q0 112 -89 212q-92 103 -205 103q-44 0 -85 -18v202h185v-73q34 14 69 14 q102 0 183 -102q78 -98 78 -212q0 -295 -293 -486q-254 -166 -555 -166q-673 0 -866 158l-56 -63q-30 -39 -30 -80q0 -92 172 -92q176 0 265 70q-91 -152 -356 -152q-193 0 -193 94zM-1439 -1714v-7q0 -101 84 -173l81 57q54 43 54 79q0 28 -29.5 51.5t-93.5 23.5 q-74 0 -96 -31z" />
<glyph unicode="&#xa1;" horiz-adv-x="2849" d="M195 -660q0 133 75 271q134 245 433 245q175 0 268 -64l50 -105q-133 52 -264 52q-275 0 -382 -235q-43 -95 -43 -216q0 -215 143 -354q94 -90 285 -90q100 0 191 25q88 25 123 60q54 54 54 325q0 122 -12 275q-3 40 -3 72q0 93 26 119q45 45 103 45q122 0 260 -166 q34 -42 54 -209h185q-8 148 -8 213q0 83 33.5 116.5t81.5 33.5q116 0 244 -143q51 -58 72 -220h213q141 0 184 -43l85 -85q57 -56 66 -193q0 -129 1 -259h-120q0 284 1 284v-8q-2 109 -20 186q-71 22 -137 23q-58 -2 -115 -3l4 -4l105 -106q23 -22 23 -71q0 -59 -29 -135 q-27 -71 -56 -99q-52 -52 -137 -52q-76 0 -116 36q-82 75 -102 147q-16 55 -16 215q-50 0 -165 -2v-52q0 -271 -53 -324q-32 -32 -115 -32q-98 0 -136 38l-105 105q-26 26 -26 136q0 40 4.5 139.5t4.5 150.5q0 193 -56 242q-39 12 -67 12q-79 0 -79 -119q0 -16 1 -44 q2 -32 2 -44q1 -89 1 -133q0 -175 -21 -260q-25 -99 -98 -172q-66 -66 -258 -66q-118 0 -229 26q-115 27 -165 70q-243 206 -243 446zM421 1180q40 422 383 422q173 0 173 -240v-1243q22 4 48 4q21 0 62.5 -3.5t62.5 -3.5q48 0 86 14q21 8 21 13q0 12 -135 28l150 116 q51 -6 163 -6q-23 -46 -60 -79l-165 -145q-21 -18 -193 -51h-303v1216q0 85 -12 115q-23 53 -100 53q-100 0 -127 -114q-10 -42 -11 -191q-1 -122 -1 -1088h-42v1183zM1367 1387q0 83 36 145q43 73 117 73q116 0 149 -94q53 111 172 111q155 0 160 -137q155 138 355 138 q69 0 101 -28q59 -51 59 -252v-1339h-254v1200q0 84 -3 132q-8 153 -137 153q-119 0 -120 -158v-194v-1133h-103v1129q0 -6 1 -13q1 12 1 63q0 67 -2 204q0 67 -28 106q-26 34 -63 34q-39 0 -67 -36q-31 -39 -31 -104q0 -160 1 -181h-106v181q0 127 -75 127q-86 0 -86 -127 v-181h-75q1 19 1 42t-1 49q-2 67 -2 90zM1562 -697q-1 -40 -1 -88q0 -119 4 -285q50 -10 84 -10q62 0 85 35q19 29 19 100q0 23 -2 77q-3 58 -3 92q-83 7 -186 79zM1828 -447q0 -38 2.5 -101t2.5 -62h165q-10 236 -109 236q-25 0 -56 -12q-5 -7 -5 -61zM2170 -777v-26 q0 -173 25 -231q27 -63 49 -63q19 0 39 49q30 76 48 273q-33 -2 -161 -2z" />
<glyph unicode="&#xa2;" horiz-adv-x="3063" d="M240 -1215q0 210 222 397q133 112 407 252q-211 -135 -292 -218q-134 -137 -156 -317q-3 -25 -3 -49q0 -317 495 -493q374 -133 776 -133q299 0 571 105q331 127 345 337q1 17 1 33q0 175 -122 276q-112 92 -288 92h-18l-1 98q-76 13 -154 13q-258 0 -573 -163 q-185 -96 -603 -382l344 532q226 342 413 531q254 255 517 324v1274q0 155 -30 155q-23 0 -95 -22q-67 -20 -96 -34l-3 -2q6 -98 7 -98v1v-1280h-223v1339l-2 54q-6 43 -38 42q-41 -1 -191 -76l-4 -2q-3 -33 -3 -49v-1308h-223v1304q0 36 1 73q-4 57 -31 58h-9 q-59 0 -127 -36q-80 -44 -92 -103v-1296h-213v1316q-12 124 -44 124q-19 0 -117 -55q28 43 152.5 122t171.5 79q34 0 48 -67l10 -95q2 -14 5 -43q65 53 198 124q150 80 210 80q48 0 61 -189q64 50 189 115q143 74 201 74q41 0 52 -37q7 -29 9 -152q65 51 189 115 q142 74 200 74q47 0 71 -70q20 -57 20 -143q0 -18 -1 -37v-1335l9 -3l-180 -174q-48 9 -97 9q-220 0 -443 -201q-163 -146 -353 -430l-261 -401q617 574 1080 574q128 0 237 -47v-134q29 27 88 27q118 0 219 -87q119 -105 119 -274q0 -95 -39 -203q-113 -304 -479 -480 q-317 -152 -675 -152q-236 0 -531 75q-350 90 -565 242q-263 186 -263 430z" />
<glyph unicode="&#xa3;" horiz-adv-x="2555" d="M251 1v1238q0 193 89.5 277.5t293.5 86.5h3q109 0 171 -78q55 -68 55 -165v-1163q18 -1 46.5 -1t67.5 1q7 84 51 174t94 114q73 35 127 35q66 0 106 -55q35 -49 35 -118q0 -98 -77 -189q-73 -86 -174 -123q7 -27 41 -78q36 -56 61 -72q33 -19 65 -19q50 0 104 53l92 101 q-107 -316 -284 -316q-8 0 -17 1q-69 6 -140 99.5t-88 196.5h-335v1270q0 133 -12 162q-19 42 -103 49q-203 -9 -203 -188v-1293h-69zM1080 245q0 -28 8 -54q73 3 155.5 72.5t82.5 126.5q0 59 -104 59q-52 -5 -97 -68t-45 -136zM1217 1391q0 83 36 143q43 71 117 71 q116 0 149 -94q53 111 172 111q155 0 160 -137q73 138 355 138q69 0 101 -28q59 -51 59 -252v-1339h-254v1200q0 84 -3 132q-4 87 -17 120q-22 57 -84 57q-155 0 -156 -122v-254v-1133h-103v1129q0 -6 1 -11q1 12 1 63q0 68 -2 206q0 67 -28 106q-26 34 -63 34 q-39 0 -67 -36q-31 -39 -31 -104q0 -164 1 -185h-106v185q0 123 -75 123q-86 0 -86 -123v-185h-75q1 19 1 42t-1 51q-2 70 -2 92z" />
<glyph unicode="&#xa4;" horiz-adv-x="1959" d="M275 716v121l160 -9v-103zM345 461l61 -105l134 88l-51 89zM345 1071l61 104l134 -88l-51 -89zM560 202l104 -60l72 143l-88 51zM560 1329l104 60l72 -143l-88 -51zM925 98h120l-9 160h-102zM925 1433h120l-9 -160h-102zM1234 285l72 -143l104 60l-88 134zM1234 1246 l72 143l104 -60l-88 -134zM1430 444l134 -88l61 105l-144 72zM1430 1087l134 88l61 -104l-144 -73zM1535 725v103l160 9v-121z" />
<glyph unicode="&#xa5;" horiz-adv-x="6385" d="M117 35q0 176 31 360q65 382 330 810q269 436 632 737q399 330 787 389q-528 -176 -1004 -781q-464 -589 -573 -1185q-8 -92 -8 -182q0 -509 247 -924q260 -438 739 -691q452 -239 949 -239q517 0 881 260q400 285 494 806l-969 -9q4 -25 4 -52q0 -91 -50.5 -205 t-184.5 -241q-151 -143 -263 -143q-185 0 -329 117q-152 125 -152 304q0 222 221 471q226 254 440 254l-151 -151q-155 0 -233 -124q-66 -105 -66 -273q0 -238 258 -355q122 -56 198 -56q162 0 162 267q0 88 -49 137q-39 39 -127 88q-96 52 -141 52q33 22 1046 37l406 6 q37 267 37 610q0 166 -15 497q-18 367 -18 378q0 628 344 628q107 0 176 -65q301 -282 301 -1188v-853l535 3v1315q0 533 66 600q119 121 136 135q81 68 151 68q74 0 148 -70q156 -146 200 -553q19 -175 19 -635v-866q546 -8 567 -29q6 -6 6 -15q0 -33 -126.5 -155 t-126.5 -161l-213 -151q0 33 126.5 184t126.5 188q0 6 -2 10q-8 7 -358 9v-1282h-273v1283h-289q0 -101 1 -614.5t1 -545.5q0 -134 -265 -134l-430 2q-14 0 -46.5 -1t-49.5 -1q-99 0 -146 29q-67 40 -67 145v1114l-367 -2q-112 -624 -577 -962q-421 -306 -1016 -306 q-512 0 -982 228q-492 237 -781 651q-318 455 -318 1028zM1380 -3v1278q0 182 72 256q78 81 283 81q231 0 231 -250v-1247q-1 0 17 -1t36 -1q237 0 310 140q2 3 -47 3h-31q-92 0 -141 6l80 51h263q-55 -114 -186 -210q-139 -103 -261 -103h-303v1342q0 84 -20 112 q-24 35 -103 35q-70 0 -98 -43q-30 -47 -30 -171v-1278h-72zM2344 1183v234q0 84 61 137q58 51 142 51q60 0 100 -36l49 -58q74 71 129 86q29 8 143 8q155 0 224 -25q124 -46 124 -183v-1404h-251v1404q0 50 -53 80q-46 25 -114 25q-61 0 -104 -21q-47 -24 -47 -64v-234 h-105v234q0 42 -35 67q-31 22 -75 22q-45 0 -76 -22q-35 -25 -35 -67v-234h-77zM3811 -479l347 3v743q0 79 1 210.5t1 185.5q0 323 -30 466q-36 182 -149 290q-24 23 -75 23q-90 0 -90 -113q0 -40 12 -100q39 -189 39 -440q0 -116 -11.5 -356.5t-11.5 -364.5 q0 -297 -33 -547zM4467 -600q0 -247 4 -567q5 -366 6 -495q0 -88 67 -114q28 -11 101 -11q25 0 71 -1h64q117 0 164 29q61 38 61 147q10 247 10 517q0 241 -8 499zM5142 1333q0 -44 11 -96q8 -38 10 -136v-56q0 -68 -1 -185q-2 -222 -2 -346v-986l289 -2v720q0 597 -15 741 q-32 313 -168 443q-30 29 -57 29q-67 0 -67 -126z" />
<glyph unicode="&#xa6;" horiz-adv-x="6283" d="M108 -265q0 663 329 1234q251 436 540 617q-327 -428 -486 -802q-211 -495 -211 -1049q0 -428 270 -776q247 -319 663 -505q405 -180 841 -180q533 0 909 267q418 297 519 854l-969 -9q4 -25 4 -52q0 -91 -50.5 -205t-184.5 -241q-151 -143 -263 -143q-185 0 -329 117 q-152 125 -152 304q0 222 221 471q226 254 440 254l-151 -151q-155 0 -233 -124q-66 -105 -66 -273q0 -238 258 -355q122 -56 198 -56q162 0 162 267q0 88 -49 137q-39 39 -127 88q-96 52 -141 52q33 22 1046 37l406 6q37 267 37 610q0 44 -22 313t-22 445q0 745 355 745 q107 0 176 -65q301 -282 301 -1188v-853l535 3v1315q0 533 66 600q119 121 136 135q81 68 151 68q74 0 148 -70q156 -146 200 -553q19 -175 19 -635v-866q546 -8 567 -29q6 -6 6 -15q0 -33 -126.5 -155t-126.5 -161l-213 -151q0 33 126.5 184t126.5 188q0 6 -2 10 q-8 7 -358 9v-1282h-273v1283h-289q0 -101 1 -614.5t1 -545.5q0 -134 -265 -134l-430 2q-14 0 -46.5 -1t-49.5 -1q-99 0 -146 29q-67 40 -67 145v1114l-367 -2q-119 -667 -584 -1020q-415 -315 -1004 -315q-481 0 -928 211q-458 215 -731 582q-296 398 -296 881zM1240 -3 v1278q0 182 72 256q78 81 283 81q231 0 231 -250v-1247q-1 0 17 -1t36 -1q237 0 310 140q2 3 -47 3h-31q-92 0 -141 6l80 51h263q-55 -114 -186 -210q-139 -103 -261 -103h-303v1342q0 84 -20 112q-24 35 -103 35q-70 0 -98 -43q-30 -47 -30 -171v-1278h-72zM2204 1183v234 q0 84 61 137q58 51 142 51q60 0 100 -36l49 -58q74 71 129 86q29 8 143 8q155 0 224 -25q124 -46 124 -183v-1404h-251v1404q0 50 -53 80q-46 25 -114 25q-61 0 -104 -21q-47 -24 -47 -64v-234h-105v234q0 42 -35 67q-31 22 -75 22q-45 0 -76 -22q-35 -25 -35 -67v-234h-77z M3671 -479l347 3v743q0 12 3.5 132.5t3.5 214.5q0 828 -259 828q-90 0 -90 -113q0 -40 12 -100q39 -189 39 -440q0 -116 -11.5 -356.5t-11.5 -364.5q0 -297 -33 -547zM4327 -600q0 -247 4 -567q5 -366 6 -495q0 -88 67 -114q28 -11 101 -11q25 0 71 -1h64q117 0 164 29 q61 38 61 147q10 247 10 517q0 241 -8 499zM5002 1333q0 -44 11 -96q8 -38 10 -136v-56q0 -68 -1 -185q-2 -222 -2 -346v-986l289 -2v720q0 597 -15 741q-32 313 -168 443q-30 29 -57 29q-67 0 -67 -126z" />
<glyph unicode="&#xa7;" horiz-adv-x="6115" d="M148 -955q0 300 128 569q131 274 332 386q-295 -387 -295 -763q0 -41 3.5 -105t3.5 -87q0 -364 441 -620q424 -246 986 -246q577 0 988 278q475 321 587 938l-969 -9q4 -25 4 -52q0 -91 -50.5 -205t-184.5 -241q-151 -143 -263 -143q-185 0 -329 117q-152 125 -152 304 q0 222 221 471q226 254 440 254l-151 -151q-155 0 -233 -124q-66 -105 -66 -273q0 -238 258 -355q122 -56 198 -56q162 0 162 267q0 88 -49 137q-39 39 -127 88q-96 52 -141 52q33 22 1046 37l406 6q37 267 37 610q0 43 -22 312.5t-22 446.5q0 744 355 744q107 0 176 -65 q301 -282 301 -1188v-853l535 3v1315q0 533 66 600q119 121 136 135q81 68 151 68q74 0 148 -70q156 -146 200 -553q19 -175 19 -635v-866q546 -8 567 -29q6 -6 6 -15q0 -33 -126.5 -155t-126.5 -161l-213 -151q0 33 126.5 184t126.5 188q0 6 -2 10q-8 7 -358 9v-1282h-273 v1283h-289q0 -101 1 -614.5t1 -545.5q0 -134 -265 -134l-430 2q-14 0 -46.5 -1t-49.5 -1q-99 0 -146 29q-67 40 -67 145v1114l-367 -2q-130 -728 -646 -1105q-447 -327 -1075 -327q-410 0 -785 143t-599 384q-238 256 -238 554zM880 -3v1278q0 182 72 256q78 81 283 81 q231 0 231 -250v-1247q-1 0 17 -1t36 -1q237 0 310 140q2 3 -47 3h-31q-92 0 -141 6l80 51h263q-55 -114 -186 -210q-139 -103 -261 -103h-303v1342q0 84 -20 112q-24 35 -103 35q-70 0 -98 -43q-30 -47 -30 -171v-1278h-72zM1844 1183v234q0 84 61 137q58 51 142 51 q60 0 100 -36l49 -58q74 71 129 86q29 8 143 8q155 0 224 -25q124 -46 124 -183v-1404h-251v1404q0 50 -53 80q-46 25 -114 25q-61 0 -104 -21q-47 -24 -47 -64v-234h-105v234q0 42 -35 67q-31 22 -75 22q-45 0 -76 -22q-35 -25 -35 -67v-234h-77zM3511 -479l347 3v743 q0 16 5 152.5t5 239.5q0 783 -262 783q-90 0 -90 -113q0 -40 12 -100q39 -189 39 -440q0 -116 -11.5 -356.5t-11.5 -364.5q0 -297 -33 -547zM4167 -600q0 -247 4 -567q5 -366 6 -495q0 -88 67 -114q28 -11 101 -11q25 0 71 -1h64q117 0 164 29q61 38 61 147q10 247 10 517 q0 241 -8 499zM4842 1333q0 -44 11 -96q8 -38 10 -136v-56q0 -68 -1 -185q-2 -222 -2 -346v-986l289 -2v720q0 597 -15 741q-32 313 -168 443q-30 29 -57 29q-67 0 -67 -126z" />
<glyph unicode="&#xa8;" horiz-adv-x="1702" d="M0 0h1702v-140h-1702v140z" />
<glyph unicode="&#xa9;" horiz-adv-x="4408" d="M145 1880v39l444 41v-2476l240 21v-45l-489 -41v2482zM780 1880v39l444 41v-2476l240 21v-45l-490 -41v2482zM1776 487q0 225 137 469q88 158 289 400l101 122q-25 -56 -30 -63q-124 -169 -150 -209q-79 -119 -121 -225q-52 -132 -52 -277q0 -158 60 -266 q74 -134 219 -134q173 0 241 130q49 96 49 292q0 391 -210 630l169 232q187 -214 187 -628q0 -275 -149 -563q-177 -340 -429 -340q-159 0 -242 142q-69 117 -69 288zM3025 1880v39l444 41v-2476l240 21v-45l-489 -41v2482zM3660 1880v39l444 41v-2476l240 21v-45l-490 -41 v2482z" />
<glyph unicode="&#xaa;" horiz-adv-x="4260" d="M140 406q246 -117 394 -140l-117 358q-76 236 -102 357l-75 348q35 -145 252 -588l282 -551l-144 -144q-129 36 -490 360zM713 406q247 -117 394 -140l-116 358q-65 202 -103 357l-91 371q62 -258 551 -1162l-145 -144q-129 36 -490 360zM1676 487q0 225 137 469 q88 158 289 400l101 122q-25 -56 -30 -63q-124 -169 -150 -209q-79 -119 -121 -225q-52 -132 -52 -277q0 -158 60 -266q74 -134 219 -134q173 0 241 130q49 96 49 292q0 391 -210 630l169 232q187 -214 187 -628q0 -275 -149 -563q-177 -340 -429 -340q-159 0 -242 142 q-69 117 -69 288zM2870 406q246 -117 394 -140l-117 358q-76 236 -102 357l-75 348q35 -145 252 -588l282 -551l-144 -144q-129 36 -490 360zM3443 406q247 -117 394 -140l-116 358q-65 202 -103 357l-91 371q62 -258 551 -1162l-145 -144q-129 36 -490 360z" />
<glyph unicode="&#xab;" />
<glyph unicode="&#xac;" d="M-1583 -476q4 246 269 246q204 0 204 -237v-258l226 46q-1 38 -1 87.5t1 110.5q9 117 99.5 184t236.5 67q320 0 320 -284v-5v-537q-1 -60 103 -60q60 0 60 115v490q0 169 53 219q58 54 266 62l-98 -103q-94 -16 -123 -42q-33 -31 -33 -115v-763h-213h-50q-162 4 -165 82 v-1q1 0 1 87v581q0 96 -38 133q-44 41 -171 43h-3q-137 0 -145 -183q1 -28 1 -68.5t-1 -94.5q87 -14 123 -41q51 -39 69 -66q29 -43 29 -114q0 -96 -69 -213q-86 -145 -207 -145q-45 0 -45 80v402h-16q-36 0 -100 -7q-80 -8 -110 -19v-158v-298h-195v708q0 120 -6 150 q-10 58 -53 60h-9q-106 0 -138 -88q-10 -28 -11 -103v-727h-61q-1 147 -1 341.5t1 435.5zM-795 -780q2 -103 2 -176q0 -27 -1 -66t-1 -51q0 -17 17 -41q21 -28 46 -28q56 122 56 216q0 133 -119 146z" />
<glyph unicode="&#xad;" horiz-adv-x="1015" d="M-1952 -707q0 252 242 363q174 79 456 79q52 0 194 -4.5t222 -4.5q276 0 406 46q177 63 177 208v29h255v-29q-34 -223 -270 -273q-122 -26 -359 -26q-16 0 -119.5 2.5t-181.5 2.5q-913 0 -913 -292q0 -94 97 -190q106 -104 293 -173q303 -112 841 -112q383 0 567 59 q292 94 332 360v1978q5 166 136 265q107 82 225 82q202 0 291 -118q77 -103 77 -310v-1474h-253v1504q-4 118 -65 200q-58 76 -129 76q-62 0 -100 -64q-44 -72 -44 -208v-1850q0 -325 -405 -501q-348 -151 -862 -151q-289 0 -535 52q-251 52 -375 143q-200 146 -200 331z " />
<glyph unicode="&#xae;" d="M-1399 -323q26 29 123 75.5t133 46.5q38 0 42 -54l-2 -61q48 31 164 72q121 43 169 43q28 0 38 -47l8 -69q51 31 152 72q113 44 158 44q28 0 39 -47q1 -5 9 -69q51 32 151 72q112 44 157 44q35 0 55 -153v-771h-184v738q0 75 -65 75q-45 0 -106 -32q-1 15 -1 -43v-738 h-156v774q-8 42 -69 42q-57 0 -140 -33v-28v-755h-155v753q-15 24 -39 79q-2 1 -7 1q-18 0 -81 -15q-75 -18 -97 -28q2 -8 0 -30v-760h-149v760q-7 74 -52 74q-18 0 -45 -11z" />
<glyph unicode="&#xaf;" d="M-1583 -466q2 96 71.5 166t157.5 70q156 0 211 -82q33 -50 33 -154v-259l226 46v168q0 117 91.5 199t234.5 82q330 0 330 -284v-5v-537q-1 -60 103 -60q60 0 60 115v490q0 169 53 219q58 54 266 62l-98 -103q-94 -16 -123 -42q-33 -31 -33 -115v-763q-92 -1 -158 -1 t-105 1q-71 2 -117.5 38t-46.5 84v612q0 105 -28 141q-39 50 -161 50q-77 0 -122.5 -49.5t-45.5 -133.5v-163q87 -14 123 -41q51 -39 69 -66q29 -43 29 -114q0 -96 -69 -213q-86 -145 -207 -145q-45 0 -45 80v402h-16q-36 0 -100 -6q-80 -9 -110 -20v-456h-195v787 q0 131 -99 131q-50 0 -84 -40t-34 -91v-787h-61v347v440zM-795 -780q2 -103 2 -176q0 -27 -1 -66t-1 -51q0 -17 17 -41q21 -28 46 -28q59 38 59 175q0 173 -122 187z" />
<glyph unicode="&#xb0;" d="M-1437 -817q0 165 84 300.5t232 207.5q102 53 236 53q106 0 322 -46t317 -46q85 0 154 21q-65 -122 -123 -122q-24 0 -85 27q-71 31 -125 41q-142 26 -238 26q-148 0 -321 -65q-234 -134 -234 -367q0 -166 117 -280q103 -99 273 -143q112 -28 220 -28h21q-24 88 -118 88 q-26 0 -85 -9l219 328q4 7 68 9q69 2 75 5l-128 -187q82 -23 120 -69q34 -43 48 -133q20 -1 38 -1q169 0 167 116h178v-47q-9 -90 -160 -139q-71 -22 -227 -44q-33 -125 -162 -256q-122 -125 -242 -170v66q79 45 155 135q87 103 87 182q0 15 -4 28q-41 -3 -83 -3 q-185 0 -366 53q-214 63 -310 154q-120 114 -120 315z" />
<glyph unicode="&#xb1;" d="M-1373 -725l127 97q54 20 171 45v128q0 83 1 83v-3q-5 87 -49 87q-31 0 -85 -45l-73 -65q1 38 47 73l110 89q55 37 126 37q89 0 93 -143q80 80 147 110q71 33 178 33q66 0 89 -29q20 -26 24 -100l4 3q120 90 159 105q52 21 181 21q82 0 105 -42q17 -30 17 -129v-319 q62 5 127 33q80 33 114 41q-111 -86 -124 -93.5t-117 -50.5v-364h-184v341q-73 -7 -146 -7q-69 0 -141 6v-340h-164v356q-116 11 -275 56v-412h-164v443q-29 7 -63 7q-82 0 -235 -52zM-911 -376v-214q108 -18 275 -55q0 271 1 271v-1q-3 55 -26 75q-27 17 -60 17 q-44 0 -103 -34zM-472 -364v-313q74 -14 287 -17v239q0 127 -32 155q-31 19 -67 19q-57 0 -188 -83z" />
<glyph unicode="&#xb2;" horiz-adv-x="2075" d="M98 8q0 9 93 80q111 85 219 143q144 77 243 82h11q75 0 158 -51q89 -54 134 -54q111 0 306 202q-1 -14 -4 -76v-19q0 -162 129 -162q106 0 106 228l-1 905q-139 -44 -235 -44q-75 0 -106.5 31t-31.5 82q0 106 117 236q115 126 198 126q152 0 152 -224q0 -28 -3 -55 q79 23 188 23q103 0 164 -23q77 -17 113 -139q26 -84 26 -182v-1117h-249v1068q-16 164 -44 191q-57 56 -206 56q1 -90 9 -319q8 -207 8 -324q0 -177 -14 -315q-11 -111 -114 -229q-107 -123 -209 -123q-71 0 -110 49q-37 44 -37 117q-113 -159 -229 -159q-21 0 -123.5 75 t-194.5 75q-95 0 -286 -78q-173 -70 -173 -77q0 -1 2 -1q-6 0 -6 2zM1276 1486q0 -47 20 -72q29 -24 105 -24q28 0 62 3q11 1 32 5q-7 97 -41 130q-43 42 -118 42q-24 0 -50 -4q-10 -46 -10 -80z" />
<glyph unicode="&#xb3;" d="M-1504 -386q0 104 69 177q66 68 148 68q18 0 59 2t62 2q158 0 179 -118q12 -68 12 -235q0 -99 -5 -278t-5 -222q25 -73 153 -78v129l-80 -28q41 60 195 99v-195q72 2 144 6q0 -29 -26.5 30t-26.5 82v546q16 110 91 181t184 77q55 3 186 3h36q118 0 125 -6q2 -2 2 -5 q0 -12 -240 -237l-276 -258l-3 -3q234 -129 403 -333q4 -7 118 -147h-183q-188 191 -403 327v-86q0 -94 14 -107l106 -101q1 -1 1 -2q0 -22 -252 -27v-91q51 10 54 12q9 2 55 10l-224 -130v198q-155 1 -206 9q-147 22 -147 99v651q-13 67 -38 94q-29 32 -92 32 q-144 0 -144 -155v-733h-45v741zM-586 -436v-221l420 394q-200 14 -200 15h1q-221 0 -221 -188z" />
<glyph unicode="&#xb4;" d="M-1668 -499q0 301 199 343q44 9 82 9h8q117 0 182 -71q1 0 2 -1q71 59 81 66q39 24 93 24h3q95 0 127 -61q22 -42 22 -145v-542q0 -107 23 -127q10 -8 26 -8q12 0 92 25q36 59 43 85l95 49q0 -96 -1 -96t-1 8q2 -41 29 -64q29 -25 71 -25q20 0 44 6q65 53 65 151 q9 118 9 230q0 268 -54 314t-266 46q145 90 240 123q115 39 267 39q107 0 147.5 -35t40.5 -134v-838h-185v722q-11 109 -11 110q-6 45 -16 54q-61 51 -133 51q-27 0 -75 -7q-60 -10 -85 -12q77 -9 108 -22q53 -23 69 -80l9 -86q1 -11 1 -381q0 -170 -43 -206l-116 -97 q-57 -48 -123 -48q-114 0 -114 113l-70 -73q-41 -43 -120 -43q-62 0 -100 32q-27 23 -27 130v569q0 55 -15 106q-20 72 -60 72q-42 0 -82 -54v-850h-181v706q0 95 -10 127q-23 72 -101 72q-136 0 -136 -196v-709h-53v629z" />
<glyph unicode="&#xb5;" d="M-1250 -660l100 151q12 -21 54 -134q33 -88 161 -121q-15 273 -45 330q-48 92 -248 107l136 158q137 -6 190 -47q61 -45 89 -181q27 -129 38 -384q27 0 171 9q41 2 77 2q54 0 97 -5q19 347 78 430l1 1q100 135 149 167q70 45 221 45l-137 -160q-17 0 -44 2t-39 2 q-62 0 -107 -54q-15 -69 -47 -446q159 -36 238 -102q91 -76 117 -222v-29h-186v25q-17 121 -42 167q-36 66 -132 108q-47 -422 -333 -422q-116 0 -171 37l-3 2q-43 29 -57 183q-3 101 -7 201q-154 11 -229 63q-50 35 -90 117zM-772 -842q11 -209 54 -239q55 -38 145 -38 q41 0 89 8q37 46 51 294q-30 6 -67 6q-49 0 -137 -14q-99 -15 -135 -17z" />
<glyph unicode="&#x3bc;" d="M-1250 -660l100 151q12 -21 54 -134q33 -88 161 -121q-15 273 -45 330q-48 92 -248 107l136 158q137 -6 190 -47q61 -45 89 -181q27 -129 38 -384q27 0 171 9q41 2 77 2q54 0 97 -5q19 347 78 430l1 1q100 135 149 167q70 45 221 45l-137 -160q-17 0 -44 2t-39 2 q-62 0 -107 -54q-15 -69 -47 -446q159 -36 238 -102q91 -76 117 -222v-29h-186v25q-17 121 -42 167q-36 66 -132 108q-47 -422 -333 -422q-116 0 -171 37l-3 2q-43 29 -57 183q-3 101 -7 201q-154 11 -229 63q-50 35 -90 117zM-772 -842q11 -209 54 -239q55 -38 145 -38 q41 0 89 8q37 46 51 294q-30 6 -67 6q-49 0 -137 -14q-99 -15 -135 -17z" />
<glyph unicode="&#xb6;" d="M-1300 -1119q190 105 220 120q93 46 148 46q67 0 184 -60q2 0 2 2q74 42 90 94l113 64q0 -116 -1 -116l-1 23q2 -59 24 -79q23 -21 57 -21q17 0 36 5q13 48 13 136q0 56 -7.5 188t-7.5 196q0 78 8 133q-86 -26 -149 -26q-84 0 -84 67q0 68 71 139.5t145 71.5q42 0 73 -28 q32 -28 32 -93q0 -20 -3 -43q48 13 136 13q129 0 156 -34q47 -60 47 -169v-640h-186v633q0 44 -55 93q-36 32 -99 32h-4l4 -461q1 -108 -48 -195q-58 -105 -161 -105q-94 0 -94 97q-54 -69 -141 -69q-16 0 -84 27.5t-126 27.5q-106 0 -305 -70q-3 0 -3 1zM-563 -264 q0 -32 16 -49q19 -15 68 -15q18 0 39 2q9 1 21 3q-9 100 -108 100q-36 0 -36 -41z" />
<glyph unicode="&#xb7;" horiz-adv-x="1959" d="M275 716v121l160 -9v-103zM345 461l61 -105l134 88l-51 89zM345 1071l61 104l134 -88l-51 -89zM560 202l104 -60l72 143l-88 51zM560 1329l104 60l72 -143l-88 -51zM925 98h120l-9 160h-102zM925 1433h120l-9 -160h-102zM1234 285l72 -143l104 60l-88 134zM1234 1246 l72 143l104 -60l-88 -134zM1430 444l134 -88l61 105l-144 72zM1430 1087l134 88l61 -104l-144 -73zM1535 725v103l160 9v-121z" />
<glyph unicode="&#xb8;" d="M-1413 -1132q291 236 430 236q33 0 126 -58t117 -58q21 0 21 27v638q0 66 78 127q71 56 131 56h4q72 -2 117 -98l138 63q109 50 152 50q106 0 106 -207q0 -21 -1 -53.5t-1 -42.5v-668h-187v584q0 132 -2 148q-9 98 -53 133q-20 16 -44 16q-39 0 -95 -46q11 -140 11 -201 v-634h-159v714q0 88 -1 95q-8 50 -50 55q-4 1 -9 1q-33 0 -61 -35q-27 -33 -27 -58v-551q0 -69 -26 -134q-33 -83 -90 -83q-62 0 -156.5 64.5t-142.5 64.5q-59 0 -169 -59z" />
<glyph unicode="&#xb9;" d="M-1292 -1151q181 259 466 259q66 0 167.5 -52t155.5 -52q13 0 23 2q20 52 20 368v31l-243 107l-63 159q88 -43 326 -150q7 130 88 227q88 106 214 106q90 0 117 -35q21 -28 21 -117v-315q48 -19 88 -24l61 -160q-12 3 -149 58v-404h-185v442l-177 65q0 -145 -4 -188 q-12 -127 -57 -172l-92 -89q-29 -29 -76 -29q-49 0 -125 35l-110 54q-74 33 -147 33q-157 0 -319 -159zM-349 -517l9 -5q44 -12 155 -53v96q0 159 -1 169q-8 78 -51 78q-8 0 -18 -2q-57 -15 -80 -123q-14 -64 -14 -135v-25z" />
<glyph unicode="&#xba;" d="M-1106 -1122l135 117q92 69 162 69q53 0 149 -36.5t143 -36.5q23 0 45 6v575q0 106 87 182q76 67 157 69q120 4 170 -31q57 -40 57 -149v-763h-185v726q0 130 -73 131q-72 1 -122.5 -48t-46.5 -120v-521q0 -44 -22 -79l-49 -78q-6 -14 -39 -14q-49 0 -161 31l-128 38 q-52 11 -91 11q-54 0 -99 -26z" />
<glyph unicode="&#xbb;" horiz-adv-x="110" d="M-1980 2286q0 199 146.5 346t346.5 147q271 0 695 -324q411 -313 514 -570q1 -7 1 -16q0 -29 -29 -29q-5 0 -51 21.5t-78 21.5q-71 0 -115 -45l-43 51q61 49 158 60q-269 271 -440 393q-321 227 -612 227q-151 0 -259 -67q-128 -80 -128 -224q0 -221 245 -346 q172 -89 395 -90v-60q-292 11 -467 96q-279 135 -279 408z" />
<glyph unicode="&#xbc;" horiz-adv-x="176" d="M-1641 2198q-1 -12 -1 -23q0 -177 194 -251q149 -56 439 -56q65 0 174.5 3t148.5 3q29 0 51 -1q-154 2 -308 3q-215 10 -326 67q-139 72 -139 223q0 11 1 23q15 236 269 419q242 175 499 175q154 0 254 -82q62 -51 98 -183q34 -122 34 -266q0 -157 -40 -259 q-44 -113 -122 -113h313q20 0 49 125q32 139 32 281q0 344 -191 443q-164 85 -435 85q-171 0 -339 -33q-159 -32 -251 -81q-150 -81 -262 -207q-132 -150 -142 -295z" />
<glyph unicode="&#xbd;" horiz-adv-x="565" d="M-236 1953l601 1185l200 136l-641 -1265z" />
<glyph unicode="&#xbe;" horiz-adv-x="1016" d="M82 1272q158 -131 387 -414q347 -429 516 -849l-134 40q-350 209 -731 300q230 5 541 -87q-115 263 -252 494q-78 131 -327 516z" />
<glyph unicode="&#xbf;" horiz-adv-x="925" d="M-2404 -1044q656 488 1078 488q187 0 423 -90l392 -167q222 -90 374 -90q178 0 250 163q54 120 54 351q0 63 -4.5 171.5t-4.5 146.5v1280q0 215 47 295q75 128 313 128q190 0 256 -137q43 -89 43 -286v-1612h-249v1612q0 125 -30 168t-111 43q-92 0 -118 -29 q-36 -39 -36 -182v-886q0 -40 4.5 -185.5t4.5 -240.5q0 -994 -462 -994q-153 0 -364 90l-366 177q-215 104 -348.5 125t-243.5 21q-168 0 -315 -53q-100 -36 -267 -133q-211 -122 -320 -174z" />
<glyph unicode="&#xc0;" horiz-adv-x="637" d="M76 874h1q0 239 104 680q122 519 266 629v-337q-68 -53 -177 -407q-111 -360 -114 -554v-57q0 -708 291 -1021v-340q-182 196 -287 677q-84 385 -84 730z" />
<glyph unicode="&#xc1;" horiz-adv-x="637" d="M178 -193v-340q183 196 288 677q84 385 84 730h-2q0 239 -104 680q-122 519 -266 629v-337q69 -53 178 -407q111 -361 114 -554v-52q0 -712 -292 -1026z" />
<glyph unicode="&#xc2;" horiz-adv-x="787" d="M-1891 -1838q19 216 269 309q176 66 518 80q437 19 464 23q176 27 253 81q102 72 102 227h185q0 -166 -53 -251q-62 -99 -216 -132q-53 -11 -463 -19q-423 -8 -632 -44q-318 -55 -318 -189q0 -180 457 -267q298 -57 600 -57q447 0 620 56q308 99 342 423v1167 q0 147 81 259q85 119 210 119q137 0 204 -144q55 -117 55 -300v-688h-184v489v221q-8 183 -48 228q-50 57 -96 57q-51 0 -85 -67q-31 -60 -31 -131v-1248q0 -361 -708 -515q-176 -38 -494 -38q-390 0 -654 71q-335 91 -378 280z" />
<glyph unicode="&#xc3;" horiz-adv-x="787" d="M-1891 -1828q19 218 279 305q145 49 444 65q229 8 459 15q218 13 310 72q114 73 114 253h185q0 -168 -53 -252q-61 -98 -216 -131q-160 -34 -346 -34q-60 0 -177 4.5t-177 4.5q-180 0 -337 -31l-233 -39q-143 -41 -143 -147q0 -180 457 -277q316 -67 600 -67 q963 0 962 501v2855q0 152 71 252q78 112 220 112q139 0 208 -154q51 -116 51 -276v-2388h-184v2189v221q-8 183 -48 229q-50 56 -96 56q-51 0 -85 -67q-31 -60 -31 -131v-2898q0 -421 -708 -575q-154 -34 -443 -34q-401 0 -682 76q-356 95 -401 291z" />
<glyph unicode="&#xc4;" horiz-adv-x="1745" d="M237 2114q0 29 139 83q147 57 248 57q111 0 111 -74q0 -167 -3 -601t-3 -701q0 -751 6 -1703q0 -2 3 -2q9 0 79.5 29.5t95.5 29.5q12 0 15 -5l-451 -294q-3 231 -3 695t3 1162v1274q-2 81 -79 81q-53 0 -151 -41q-10 3 -10 10zM852 2114q0 29 138 83q147 57 249 57 q110 0 110 -74q0 -154 -3 -578.5t-3 -694.5q0 -751 6 -1732q1 -2 3 -2q10 0 80 29.5t96 29.5q11 0 15 -5l-452 -294q-3 264 -3 728.5t3 1128.5v1274q-2 81 -79 81q-53 0 -150 -41q-10 3 -10 10z" />
<glyph unicode="&#xc5;" horiz-adv-x="139" d="M-1265 2127q0 98 68 166l145 145q56 56 142 56q106 0 180 -73q48 -48 48 -101q0 -56 -52 -108l-145 -145q-23 -23 -84 -60l115 115q16 30 16 61q0 50 -43 93q-68 68 -172 68q-29 0 -56 -7q-13 -38 -13 -74q0 -115 106 -122q-6 0 -6 1t100 1l-150 -151h-86 q-113 10 -113 135zM-593 2168q0 76 54 133t129 57q151 0 151 -126q0 -43 -21 -89q24 -10 55 -10q152 0 324 231q-90 -176 -172 -259q-121 -123 -278 -123q-94 0 -162 44q-80 52 -80 142z" />
<glyph unicode="&#xc6;" d="M-1560 2112l118 123q12 -79 44 -115q14 -13 29 -11l96 100q-22 -47 -61 -87l-114 -119q-17 -18 -34 -18q-30 0 -54 51q-18 38 -24 76zM-1382 2365l118 123q13 -79 44 -115q14 -13 30 -11l96 100q-23 -47 -61 -87l-115 -119q-17 -18 -34 -18q-29 0 -54 51q-18 37 -24 76z M-1268 2112l118 123q12 -79 44 -115q14 -13 29 -11l96 100q-22 -47 -61 -87l-114 -119q-17 -18 -34 -18q-30 0 -54 51q-18 38 -24 76zM-905 2103q0 98 68 166l145 145q56 56 142 56q106 0 180 -73q48 -48 48 -101q0 -56 -52 -108l-145 -145q-23 -23 -84 -60l115 115 q16 30 16 61q0 50 -43 93q-68 68 -172 68q-29 0 -56 -7q-13 -38 -13 -74q0 -115 106 -122q-6 0 -6 1t100 1l-150 -151h-86q-113 10 -113 135z" />
<glyph unicode="&#xc7;" d="M-1400 2082l118 123q12 -79 44 -115q14 -13 29 -11l96 100q-22 -47 -61 -87l-114 -119q-17 -18 -34 -18q-30 0 -54 51q-18 38 -24 76zM-1222 2335l118 123q13 -79 44 -115q14 -13 30 -11l96 100q-23 -47 -61 -87l-115 -119q-17 -18 -34 -18q-29 0 -54 51q-18 37 -24 76z M-1108 2082l118 123q12 -79 44 -115q14 -13 29 -11l96 100q-22 -47 -61 -87l-114 -119q-17 -18 -34 -18q-30 0 -54 51q-18 38 -24 76zM-657 1927q146 364 355 656q57 80 325 399l98 95q-214 -299 -325 -502q-181 -331 -252 -648h-201z" />
<glyph unicode="&#xc8;" horiz-adv-x="299" d="M-1760 2142l118 123q12 -79 44 -115q14 -13 29 -11l96 100q-22 -47 -61 -87l-114 -119q-17 -18 -34 -18q-30 0 -54 51q-18 38 -24 76zM-1582 2395l118 123q13 -79 44 -115q14 -13 30 -11l96 100q-23 -47 -61 -87l-115 -119q-17 -18 -34 -18q-29 0 -54 51q-18 37 -24 76z M-1468 2142l118 123q12 -79 44 -115q14 -13 29 -11l96 100q-22 -47 -61 -87l-114 -119q-17 -18 -34 -18q-30 0 -54 51q-18 38 -24 76zM-1075 2113q0 98 68 166l145 145q56 56 142 56q106 0 180 -73q48 -48 48 -101q0 -56 -52 -108l-145 -145q-23 -23 -84 -60l115 115 q16 30 16 61q0 50 -43 93q-68 68 -172 68q-29 0 -56 -7q-13 -38 -13 -74q0 -115 106 -122q-6 0 -6 1t100 1l-150 -151h-86q-113 10 -113 135zM-413 2168q0 76 54 133t129 57q151 0 151 -126q0 -43 -21 -89q24 -10 55 -10q152 0 324 231q-90 -176 -172 -259 q-121 -123 -278 -123q-94 0 -162 44q-80 52 -80 142z" />
<glyph unicode="&#xc9;" horiz-adv-x="349" d="M-1670 2122l118 123q12 -79 44 -115q14 -13 29 -11l96 100q-22 -47 -61 -87l-114 -119q-17 -18 -34 -18q-30 0 -54 51q-18 38 -24 76zM-1492 2375l118 123q13 -79 44 -115q14 -13 30 -11l96 100q-23 -47 -61 -87l-115 -119q-17 -18 -34 -18q-29 0 -54 51q-18 37 -24 76z M-1378 2122l118 123q12 -79 44 -115q14 -13 29 -11l96 100q-22 -47 -61 -87l-114 -119q-17 -18 -34 -18q-30 0 -54 51q-18 38 -24 76zM-1005 2093q0 98 68 166l145 145q56 56 143 56q105 0 179 -73q48 -48 48 -101q0 -56 -52 -108l-145 -145q-23 -23 -84 -60l115 115 q16 30 16 61q0 50 -43 93q-68 68 -172 68q-29 0 -56 -7q-13 -38 -13 -74q0 -115 106 -122q-6 0 -6 1t100 1l-150 -151h-86q-113 10 -113 135zM-387 1967q146 364 355 656q57 80 325 399l98 95q-214 -299 -325 -502q-181 -331 -252 -648h-201z" />
<glyph unicode="&#xca;" horiz-adv-x="153" d="M-1330 2122l118 123q12 -79 44 -115q14 -13 29 -11l96 100q-22 -47 -61 -87l-114 -119q-17 -18 -34 -18q-30 0 -54 51q-18 38 -24 76zM-1152 2375l118 123q13 -79 44 -115q14 -13 30 -11l96 100q-23 -47 -61 -87l-115 -119q-17 -18 -34 -18q-29 0 -54 51q-18 37 -24 76z M-1038 2122l118 123q12 -79 44 -115q14 -13 29 -11l96 100q-22 -47 -61 -87l-114 -119q-17 -18 -34 -18q-30 0 -54 51q-18 38 -24 76zM-653 2138q0 75 59 132.5t134 57.5q151 0 151 -126q0 -43 -21 -89q24 -10 55 -10q152 0 324 231q-89 -175 -147 -237q-41 -45 -154 -109 q-63 -36 -149 -36q-96 0 -167 44q-85 52 -85 142z" />
<glyph unicode="&#xcb;" d="M-1911 2080q0 218 282 462q250 216 471 271q109 27 229 27q273 0 406 -130q93 -91 93 -192q0 -135 -179 -310l-383 -358q86 91 279 276q110 129 110 237q0 98 -87 183q-150 146 -409 146q-244 0 -437 -122q-203 -128 -203 -310q0 -119 95 -238q49 -61 131 -78 q44 -9 165 -9q76 0 85 9l2 2l7 -6l-1 -1l-167 -164q-19 -19 -72 -19q-66 0 -167 30q-110 33 -150 72q-100 98 -100 222zM-1441 2172l118 123q12 -79 44 -115q14 -13 29 -11l96 100q-22 -47 -61 -87l-114 -119q-17 -18 -34 -18q-30 0 -54 51q-18 38 -24 76zM-1263 2425 l118 123q13 -79 44 -115q14 -13 30 -11l96 100q-23 -47 -61 -87l-115 -119q-17 -18 -34 -18q-29 0 -54 51q-18 37 -24 76zM-1149 2172l118 123q12 -79 44 -115q14 -13 29 -11l96 100q-22 -47 -61 -87l-114 -119q-17 -18 -34 -18q-30 0 -54 51q-18 38 -24 76z" />
<glyph unicode="&#xcc;" horiz-adv-x="220" d="M-1760 2080q0 218 282 462q250 216 471 271q109 27 229 27q273 0 406 -130q93 -91 93 -192q0 -135 -179 -310l-383 -358q86 91 279 276q110 129 110 237q0 98 -87 183q-150 146 -409 146q-244 0 -437 -122q-203 -128 -203 -310q0 -119 95 -238q49 -61 131 -78 q44 -9 165 -9q76 0 85 9l2 2l7 -6l-1 -1l-167 -164q-19 -19 -72 -19q-66 0 -167 30q-110 33 -150 72q-100 98 -100 222zM-1290 2172l118 123q12 -79 44 -115q14 -13 29 -11l96 100q-22 -47 -61 -87l-114 -119q-17 -18 -34 -18q-30 0 -54 51q-18 38 -24 76zM-1112 2425 l118 123q13 -79 44 -115q14 -13 30 -11l96 100q-23 -47 -61 -87l-115 -119q-17 -18 -34 -18q-29 0 -54 51q-18 37 -24 76zM-998 2172l118 123q12 -79 44 -115q14 -13 29 -11l96 100q-22 -47 -61 -87l-114 -119q-17 -18 -34 -18q-30 0 -54 51q-18 38 -24 76zM-427 1817 q146 364 355 656q57 80 325 399l98 95q-214 -299 -325 -502q-181 -331 -252 -648h-201z" />
<glyph unicode="&#xcd;" d="M-2408 2105q0 215 273 457q247 218 480 276q112 28 232 28q269 0 403 -131q91 -89 91 -202q0 -175 -211 -389q-159 -161 -349 -269l241 234q147 159 147 282q0 96 -86 180q-150 146 -409 146q-219 0 -411 -105q-229 -126 -229 -327q0 -165 139 -262q113 -78 246 -78 q67 0 91 24l2 2l7 -6l-1 -1l-167 -164q-25 -25 -88 -25q-131 0 -255 84q-146 99 -146 246zM-1920 2192l118 123q12 -79 44 -115q14 -13 29 -11l96 100q-22 -47 -61 -87l-114 -119q-17 -18 -34 -18q-30 0 -54 51q-18 38 -24 76zM-1742 2445l118 123q13 -79 44 -115 q14 -13 30 -11l96 100q-23 -47 -61 -87l-115 -119q-17 -18 -34 -18q-29 0 -54 51q-18 37 -24 76zM-1628 2192l118 123q12 -79 44 -115q14 -13 29 -11l96 100q-22 -47 -61 -87l-114 -119q-17 -18 -34 -18q-30 0 -54 51q-18 38 -24 76zM-783 2278q0 76 54 133t129 57 q151 0 151 -126q0 -43 -21 -89q24 -10 55 -10q152 0 324 231q-90 -176 -172 -259q-121 -123 -278 -123q-94 0 -162 44q-80 52 -80 142z" />
<glyph unicode="&#xce;" horiz-adv-x="1408" d="M-143 2168q0 76 54 133t129 57q151 0 151 -126q0 -43 -21 -89q24 -10 55 -10q152 0 324 231q-90 -176 -172 -259q-121 -123 -278 -123q-94 0 -162 44q-80 52 -80 142zM191 13l101 77q121 93 278 346q163 264 237 506q44 144 44 250q0 100 -39 166q-37 63 -90 63 q-11 0 -32 -3.5t-32 -3.5q-13 -31 -19 -55l-368 -280q24 104 74 194q61 111 139 148l286 137q84 40 127 40q69 0 125 -84l6 -9q49 -73 49 -194q0 -245 -194 -593q-174 -312 -336 -440q33 7 64 7q50 0 163 -36q101 -33 170 -33h11q147 6 234 91l127 148l-157 -320 q-63 -119 -190 -131h-2q-25 0 -160 37q-150 41 -277 41q-171 0 -339 -69z" />
<glyph unicode="&#xcf;" horiz-adv-x="1414" d="M-257 1877q146 364 355 656q57 80 325 399l98 95q-214 -299 -325 -502q-181 -331 -252 -648h-201zM191 13l101 77q121 93 278 346q163 264 237 506q44 144 44 250q0 100 -39 166q-37 63 -90 63q-11 0 -32 -3.5t-32 -3.5q-13 -31 -19 -55l-368 -280q24 104 74 194 q61 111 139 148l286 137q84 40 127 40q69 0 125 -84l6 -9q49 -73 49 -194q0 -245 -194 -593q-174 -312 -336 -440q33 7 64 7q50 0 163 -36q101 -33 170 -33h11q147 6 234 91l127 148l-157 -320q-63 -119 -190 -131h-2q-25 0 -160 37q-150 41 -277 41q-171 0 -339 -69z" />
<glyph unicode="&#xd0;" d="M-1660 2080q0 215 273 457q247 218 480 276q112 28 232 28q269 0 403 -131q91 -89 91 -202q0 -175 -211 -389q-159 -161 -349 -269l241 234q147 159 147 282q0 96 -86 180q-150 146 -409 146q-219 0 -411 -105q-229 -126 -229 -327q0 -165 139 -262q113 -78 246 -78 q67 0 91 24l2 2l7 -6l-1 -1l-167 -164q-25 -25 -88 -25q-131 0 -255 84q-146 99 -146 246zM-387 1787q146 364 355 656q57 80 325 399l98 95q-214 -299 -325 -502q-181 -331 -252 -648h-201z" />
<glyph unicode="&#xd1;" d="M-1625 -527q0 334 260 334q123 0 173 -81q35 -55 46 -183v-228q35 0 112 15q81 15 118 16v261q1 78 85 131q74 47 162 47q105 0 150 -15t135 -80q95 123 251 123q90 0 117 -84q15 -45 15 -162v-355v-354h-178v694q0 116 -44 150q-16 12 -39 12q-38 0 -74 -27.5t-36 -58.5 v-760h-137v651q0 79 -65 137t-146 58q-42 0 -85 -29q-48 -33 -48 -73v-267q83 -12 143 -36q53 -39 53 -125q0 -120 -71 -202l-70 -80q-36 -41 -78 -41q-40 0 -40 78v316q-69 14 -134 14q-49 0 -96 -8v-393h-166v633q0 103 -17 134q-26 47 -118 47q-82 0 -111 -61 q-20 -41 -20 -131v-632h-47v615zM-853 -766v-213q0 -69 43 -69q50 0 50 124q0 140 -93 158z" />
<glyph unicode="&#xd2;" d="M-1463 -435q0 110 88 186q75 66 150 66q77 0 125 -55q41 -48 40 -112v-15v-583v-7q0 -92 236 -92q104 0 137 62q23 41 23 151q0 85 -52 134q-33 31 -93 31q-32 0 -50 -13v281q17 109 158 173q68 31 144 31q131 0 162 -97q120 110 249 110q145 0 145 -184v-774h-178v750 q-8 39 -37 69t-67 30q-43 0 -106 -28q10 -133 10 -127v-694h-54v740q-8 41 -65.5 75.5t-105.5 34.5q-33 0 -69 -35.5t-44 -70.5v-237q14 9 37 9q57 0 92.5 -32.5t35.5 -100.5q0 -70 -35 -152q-34 -78 -76 -111q-64 -50 -164 -88q-114 -44 -207 -44q-191 0 -191 175v577 q1 52 -28 81q-23 23 -58 23h-6q-85 -4 -98 -130v-721h-48v714z" />
<glyph unicode="&#xd3;" d="M-1454 -1138v708q0 101 84 179q77 71 161 75q138 6 162 -91q194 94 230 94q90 0 83 -148v-658q0 -74 15 -94q18 -26 88 -26q112 0 153 44q0 79 1 297t1 297q0 298 340 283q137 -6 137 -235v-725h-182v740q0 128 -102 128q-65 0 -106.5 -51.5t-41.5 -118.5v-570 q-14 -74 -59 -92q-68 -27 -183 -27q-81 0 -113 10q-48 14 -84 65v583q0 109 -6 133q-17 76 -90 73q-55 -3 -83 -37v-836h-171v677q0 179 -65 179q-53 0 -90 -51q-30 -43 -37 -99v-706h-42z" />
<glyph unicode="&#xd4;" d="M-1485 -767q0 90 40 195q50 96 176 184q77 53 262 150q-303 -210 -348 -386q-4 -30 -4 -57q0 -266 384 -266q24 0 46 3l-10 151l151 150q0 -165 81 -246q50 -50 124 -50t118 76q37 66 37 153q0 335 -389 511h731q86 0 86 -106v-823h-182v848h-333q95 -52 167 -155 q70 -99 70 -176v-18q0 -213 -157 -357q-136 -125 -280 -125q-81 0 -137 57l-40 73l-68 -68q-56 -56 -188 -56q-147 0 -212 65q-125 125 -125 273z" />
<glyph unicode="&#xd5;" d="M-1517 -754q0 38 10 73q46 223 391 413q-140 -143 -174 -190q-87 -118 -87 -238q0 -93 63 -167q71 -85 188 -91q15 5 42 5q-3 14 -3 28q0 102 109 203q102 94 184 94q50 0 78 -44q24 -37 24 -90q0 -70 -33 -119l-85 -101q47 -17 97 -17q114 0 198 75q88 77 88 189 q0 69 -37 140q-84 123 -139 189q-97 119 -207 203h705q63 0 84 -22t21 -90v-817h-183v861h-413q319 -194 319 -388q0 -182 -137 -323q-140 -144 -324 -144q-78 0 -114 13q-26 10 -97 57q-26 -8 -101 -41q-45 -20 -97 -21h-7q-135 0 -248 110q-115 112 -115 250zM-1001 -891 q0 -84 95 -103q13 3 60 30q10 38 10 75q0 103 -75 103q-90 0 -90 -105z" />
<glyph unicode="&#xd6;" horiz-adv-x="105" d="M-1497 -782q28 537 747 537q81 0 195 -11.5t147 -11.5q95 0 132 54q43 61 43 230h233q0 -142 -2 -153q-11 -61 -74 -110q-92 -72 -209 -87q-41 -6 -230 -6q-319 0 -479 -67q-245 -102 -245 -376q0 -241 203 -377q176 -119 428 -119q420 0 420 193v275h190 q-3 -87 -3 -1049q0 -125 56 -179q63 -60 105 -60q75 0 75 170v383q0 154 30 193l132 137q-67 -86 -67 -167q0 -14 2.5 -43t2.5 -43v-422q-20 -108 -108 -215q-98 -118 -201 -118q-211 0 -211 298v563q-165 -80 -404 -80q-359 0 -628 182q-281 189 -281 452q0 13 1 27z" />
<glyph unicode="&#xd7;" horiz-adv-x="427" d="M-1157 -642q0 136 142 276.5t275 140.5q75 0 238 -29q232 -42 247 -44v309h255v-298q38 -2 75 -2q61 0 121 5q99 8 118 22v-23v-396q0 -351 1 -373q11 -273 69 -329q66 -63 103 -63q77 0 77 177q0 24 -1.5 60.5t-1.5 44.5q0 41 -1.5 121.5t-1.5 121.5q0 219 50 283 l142 147q-54 -69 -67 -134q-8 -38 -8 -101q0 -18 1 -39q4 -146 5 -146v2q0 -659 -323 -659q-83 0 -156 62q-49 42 -60 345q-1 37 -1 396v339q-58 -5 -141 -11l-2 -12q0 2 1 -424q0 -315 -51 -366q-141 -141 -331 -141q-273 0 -528 253q-246 245 -246 485zM-1022 -562 q0 -179 225 -508q136 -199 287 -199q99 0 165 93q83 117 89 267q-1 71 -1 184t1 267l-25 2q-223 18 -412 49q-67 11 -120 11q-209 0 -209 -166z" />
<glyph unicode="&#xd8;" horiz-adv-x="384" d="M-1655 -1199q0 131 84 227q81 94 211 124q-80 -47 -138 -144q-63 -104 -63 -210q0 -292 535 -446q379 -110 768 -110q725 0 725 322q0 298 -341 298v712q-4 -1 -126 -11l-2 -12q0 2 1 -424q0 -315 -51 -366q-141 -141 -331 -141q-273 0 -528 253q-246 245 -246 485 q0 136 142 276.5t275 140.5q75 0 238 -29q232 -42 247 -44v309h255v-298q38 -2 75 -2q60 0 120 5q97 8 116 22v-760q22 5 44 5q107 0 193.5 -89.5t86.5 -200.5q0 -539 -1133 -539q-400 0 -702 115q-410 157 -452 482q-3 25 -3 50zM-1022 -562q0 -179 225 -508 q136 -199 287 -199q99 0 165 93q83 117 89 267q-1 71 -1 184t1 267l-25 2q-223 18 -412 49q-67 11 -120 11q-209 0 -209 -166z" />
<glyph unicode="&#xd9;" horiz-adv-x="384" d="M-1565 -1725q0 8 2 17q14 72 66 125q12 12 113 92q-45 42 -45 97q0 95 91.5 190t189.5 95q160 0 160 -102q0 -61 -75 -121q-46 -38 -142 -110q117 -78 332 -153q239 -83 428 -98q45 -4 102 -4q295 0 531 72q309 94 325 276q1 11 1 21q0 99 -84 191q-93 103 -210 103 q-45 0 -86 -18v626q-1 0 -134 -11l-2 -12q0 2 1 -424q0 -315 -51 -366q-141 -141 -331 -141q-273 0 -528 253q-246 245 -246 485q0 136 142 276.5t275 140.5q75 0 238 -29q232 -42 247 -44v309h255v-298q38 -2 75 -2q60 0 121 5q97 8 116 22v-661q34 14 70 14 q103 0 185 -100.5t82 -213.5q0 -283 -394 -434q-298 -114 -656 -114q-185 0 -500 80q-346 87 -466 186l-56 -63q-30 -39 -30 -80q0 -100 136 -100q97 0 154 45q-78 -130 -236 -130q-69 0 -116 30q-50 30 -50 78zM-1322 -1237v-7q0 -101 84 -173l81 57q54 43 54 79 q0 28 -29.5 51.5t-93.5 23.5q-74 0 -96 -31zM-1022 -562q0 -179 225 -508q136 -199 287 -199q99 0 165 93q83 117 89 267q-1 71 -1 184t1 267l-25 2q-223 18 -412 49q-67 11 -120 11q-209 0 -209 -166z" />
<glyph unicode="&#xda;" horiz-adv-x="1959" d="M452 520v91l120 -7v-77zM505 328l45 -79l101 66l-39 67zM505 786l45 79l101 -66l-39 -67zM666 133l78 -45l55 108l-67 38zM666 981l78 45l55 -108l-67 -38zM940 55h91l-7 121h-77zM940 1059h91l-7 -121h-77zM1172 196l55 -108l78 45l-66 101zM1172 918l55 108l78 -45 l-66 -101zM1320 315l101 -66l45 79l-107 54zM1320 799l101 66l45 -79l-107 -54zM1399 527v77l120 7v-91z" />
<glyph unicode="&#xdb;" horiz-adv-x="1015" d="M-1952 -707q0 252 242 363q174 79 456 79q52 0 194 -4.5t222 -4.5q276 0 406 46q177 63 177 208v29h255v-29q-34 -223 -270 -273q-122 -26 -359 -26q-16 0 -119.5 2.5t-181.5 2.5q-913 0 -913 -292q0 -94 97 -190q106 -104 293 -173q303 -112 841 -112q383 0 567 59 q292 94 332 360v1978q0 165 133 265q108 82 228 82q202 0 291 -118q77 -103 77 -310v-2078v-76v-70q0 -82 34 -118q60 -64 137 -64q58 0 101 38q5 16 20 141v686q0 216 -83 333q37 -21 65 -43q70 -54 94 -113q16 -40 18 -173v-108v-562q-12 -51 -39 -119l-125 -145 q-67 -78 -198 -78q-132 0 -216 77q-49 44 -61 120v2382q0 118 -61 200q-57 76 -129 76q-63 0 -103 -64q-45 -72 -45 -208v-1850q0 -325 -405 -501q-348 -151 -862 -151q-289 0 -535 52q-251 52 -375 143q-200 146 -200 331z" />
<glyph unicode="&#xdc;" horiz-adv-x="787" d="M-1851 -1838q10 109 65 173l103 90q113 101 555 117l313 6q245 13 383 66q187 72 187 219v49h185q0 -194 -23 -252q-39 -100 -186 -131q-160 -34 -361 -34q-64 0 -192 4.5t-193 4.5q-194 0 -351 -31l-150 -24q-102 -19 -155 -52q-71 -44 -71 -120q0 -180 457 -267 q298 -57 600 -57q417 0 624 74q298 108 298 387v18v1247q0 170 47 240q63 93 233 93h24q162 -6 215 -142q31 -78 31 -257l-2 -1454q0 -121 66 -179q48 -42 84 -42q86 0 86 202v453q0 195 -80 306q180 -72 180 -359v-382q-20 -113 -108 -230q-100 -133 -201 -133 q-80 0 -155 63q-56 47 -56 235v1321q0 390 -53 450q-49 56 -91 56q-54 0 -92 -91q-22 -49 -22 -107v-1328q0 -198 -248 -351q-182 -112 -420 -164q-176 -38 -494 -38q-390 0 -654 71q-335 91 -378 280z" />
<glyph unicode="&#xdd;" horiz-adv-x="1451" d="M164 827q0 336 195 569q167 199 336 199q88 0 148 -59q49 -47 56 -98l142 124q64 45 178 45q145 0 197 -104q36 -71 36 -227v-2439q1 -3 4 -3q5 0 35 11.5t44 11.5t20 -9l-346 -212v2583q0 115 -13 155q-25 84 -114 84q-99 0 -142 -44t-43 -143v-1263h-148v1218 q0 217 -121 217q-100 0 -216 -155q-143 -190 -143 -461q0 -253 202 -588q69 -113 69 -149v-82h-105v82q0 30 -80 149q-191 285 -191 588z" />
<glyph unicode="&#xde;" horiz-adv-x="1081" d="M2 -40h1078v-115h-1078v115z" />
<glyph unicode="&#xdf;" horiz-adv-x="2048" d="M455 603v522l368 368h522l368 -368v-522l-368 -368h-522zM574 653l299 -299h422l299 299v422l-299 299h-422l-299 -299v-422z" />
<glyph unicode="&#xe0;" horiz-adv-x="397" d="M-2138 -583q0 129 76 240.5t213 175.5l154 68q-148 -87 -211 -166q-85 -106 -85 -260q0 -318 418 -471q297 -109 679 -109q399 0 688 80q445 124 445 410q0 175 -90 263q-105 73 -226 73q-104 0 -416 -98l237 151v232h256v-76q47 18 104 18q160 0 244 -108 q74 -95 74 -245q0 -104 -36 -203q-124 -343 -596 -499q-344 -114 -807 -114q-749 0 -1020 355q-101 132 -101 283z" />
<glyph unicode="&#xe1;" horiz-adv-x="397" d="M-2578 -583q0 129 76 240.5t213 175.5l154 68q-148 -87 -211 -166q-85 -106 -85 -260q0 -314 568 -471q393 -109 829 -109q428 0 758 80q515 126 515 410q0 175 -90 263q-105 73 -226 73q-104 0 -416 -98l237 151v232h256v-76q47 18 104 18q160 0 244 -108 q74 -95 74 -245q0 -104 -36 -203q-123 -340 -666 -499q-389 -114 -877 -114q-381 0 -706 65q-463 92 -614 290q-101 132 -101 283z" />
<glyph unicode="&#xe2;" horiz-adv-x="397" d="M-2709 -685q0 332 574 586q-423 -248 -423 -494q0 -40 11 -80q89 -333 557 -535q427 -185 964 -185q465 0 854 224q411 237 411 554q0 175 -90 263q-135 94 -232 94q-79 0 -307 -72q49 29 88 65q35 33 46 39v235h256v-79q47 18 104 18q168 0 269 -153q89 -135 89 -318 q0 -106 -34 -187q-336 -801 -1572 -801q-511 0 -945 174q-415 166 -546 399q-74 132 -74 253z" />
<glyph unicode="&#xe3;" horiz-adv-x="317" d="M-1436 -1306q128 -54 206 -54q103 0 202 127q-135 43 -135 166q0 75 50 162q46 80 110 131.5t155 51.5q85 0 144 -45q65 -49 65 -132q0 -137 -73 -210q27 -7 79 -7q282 0 541 117q351 158 351 451q0 116 -87 218q-92 109 -216 112h-4q-72 0 -234 -75q-128 -60 -164 -86 l191 149v241h255v-98q45 23 93 23q120 0 215 -126q92 -122 92 -263q0 -394 -448 -631q-371 -195 -804 -195q-99 -99 -227 -150q-56 -23 -111 -23q-144 0 -246 146zM-1091 -983q0 -54 35.5 -96t79.5 -42q28 0 50 20q82 73 82 178q0 112 -83 112q-17 0 -36 -6 q-128 -62 -128 -166z" />
<glyph unicode="&#xe4;" horiz-adv-x="317" d="M-2436 -1116q128 -54 206 -54q103 0 202 127q-135 43 -135 166q0 75 50 162q46 80 110 131.5t155 51.5q85 0 144 -45q65 -49 65 -132q0 -137 -73 -210q83 -53 297 -109q273 -71 527 -71q456 0 777 134q370 153 370 417q0 116 -87 218q-92 109 -216 112h-4q-72 0 -234 -75 q-128 -60 -164 -86l191 149v241h255v-98q45 23 93 23q120 0 215 -126q92 -122 92 -263q0 -401 -410 -613q-346 -179 -878 -182h-7q-244 0 -554 65l-403 94q-99 -99 -227 -150q-56 -23 -111 -23q-144 0 -246 146zM-2091 -792q0 -55 35.5 -97t79.5 -42q28 0 50 20 q82 73 82 178q0 112 -83 112q-17 0 -36 -6q-128 -62 -128 -165z" />
<glyph unicode="&#xe5;" horiz-adv-x="1491" d="M211 583q0 307 391 479q-148 -87 -211 -166q-85 -106 -85 -260q0 -313 461 -426q260 -64 723 -64v-146q-488 0 -843 124q-403 140 -431 384q-5 39 -5 75z" />
<glyph unicode="&#xe6;" d="M-2338 -1629q0 162 83 279l150 168l-96 -198q-44 -101 -44 -235q0 -304 539 -476q401 -128 796 -128q376 0 674 196q292 192 292 421q0 298 -341 298v204h185v-88q21 5 44 5q107 0 193.5 -89.5t86.5 -200.5q0 -374 -362 -608q-358 -231 -921 -231q-418 0 -788 143 q-491 191 -491 540z" />
<glyph unicode="&#xe7;" horiz-adv-x="286" d="M-254 0h254v-875q0 -126 17 -175q31 -90 132 -90q84 0 115 81q21 57 21 184v-1q5 0 5 381q0 219 50 283l142 147q-54 -69 -67 -134q-7 -36 -7 -284v-392q0 -246 -73 -341.5t-255 -95.5q-178 0 -256 100.5t-78 336.5v875z" />
<glyph unicode="&#xe8;" horiz-adv-x="286" d="M-254 7h254v-850q2 -21 2 -54v-33q-1 -21 -1 -33q0 -100 24 -145q34 -63 129 -63h3q86 1 111 112l20 197v138q0 214 -71 460q-56 197 -104 264q110 -104 185 -288q84 -208 84 -436v-138q0 -205 -50 -308q-71 -144 -252 -144q-334 0 -334 247v1074z" />
<glyph unicode="&#xe9;" horiz-adv-x="790" d="M-1572 -757q0 245 239 426q114 86 385 206l-282 -217q-176 -160 -188 -374q-1 -10 -1 -20q0 -250 363 -455q355 -200 866 -260q90 -11 193 -11q393 0 710 129q372 151 430 415q17 78 17 150q0 258 -202 417q-165 130 -346 130q-47 0 -78 -13v1524q0 84 -14 115 q-22 50 -93 50q-93 0 -120 -22q-38 -31 -38 -144v-1259q-16 -115 -88 -165l-180 -90v-744q0 -320 -86.5 -353t-169.5 -33q-237 0 -362 238q-134 255 -134 478q0 199 153 316q99 75 348 158v172h251v-132q125 30 149 46q47 33 47 132v1236q0 311 276 311q315 0 315 -262 v-1408q25 6 54 6q170 0 325 -147q174 -165 174 -400q0 -58 -12 -118q-81 -414 -483 -631q-352 -191 -858 -191q-144 0 -289 17q-579 68 -916 267q-323 189 -352 452q-3 30 -3 58zM-688 -685q0 -139 134 -305q131 -160 228 -160q75 0 75 120q0 19 -2 40v712 q-236 -56 -317 -118q-118 -89 -118 -289z" />
<glyph unicode="&#xea;" horiz-adv-x="1693" d="M159 -36q217 165 395 440q168 259 253 538q55 180 55 294q0 212 -173 212q-130 0 -212 -89q-59 -64 -90 -170l-23 -110h-93q32 516 466 516q340 0 340 -284q0 -245 -194 -593q-174 -312 -336 -440q101 32 196 32q305 0 571 -339q95 -121 384 -631q193 -341 317 -343h3 q102 0 201 117l156 205l-128 -282q-96 -169 -219 -169q-214 0 -426 331l-374 615q-248 331 -550 331q-230 0 -519 -181z" />
<glyph unicode="&#xeb;" horiz-adv-x="138" d="M-1590 2080q0 215 273 457q247 218 480 276q112 28 232 28q269 0 403 -131q91 -89 91 -202q0 -175 -211 -389q-159 -161 -349 -269l241 234q147 159 147 282q0 96 -86 180q-150 146 -409 146q-219 0 -411 -105q-229 -126 -229 -327q0 -165 139 -262q113 -78 246 -78 q67 0 91 24l2 2l7 -6l-1 -1l-167 -164q-25 -25 -88 -25q-131 0 -255 84q-146 99 -146 246zM-1456 2963v140h1702v-140h-1702z" />
<glyph unicode="&#xec;" horiz-adv-x="138" d="M-1648 3273q0 141 130 256q113 98 264 135q-113 -38 -204 -147q-97 -115 -97 -230q0 -304 493 -468q361 -120 749 -120q766 0 766 317q0 298 -341 298v204h185v-88q21 5 44 5q107 0 193.5 -89.5t86.5 -200.5q0 -539 -1083 -539q-410 0 -742 135q-444 182 -444 532z M-841 2119q0 101 94 212t212 143q38 10 73 10q89 0 157 -67q42 -42 42 -94q0 -84 -104 -187q-74 -74 -171 -133q124 124 124 194q0 42 -36 75q-81 72 -166 72q-75 0 -75 -85q0 -89 62 -111q27 -9 138 -9l-150 -151q-87 0 -85 0q-49 4 -76 32q-39 39 -39 99z" />
<glyph unicode="&#xed;" horiz-adv-x="138" d="M-1296 2611v629q0 301 199 343q44 9 82 9h8q117 0 182 -71q1 0 2 -1q71 59 81 66q39 24 93 24h3q95 0 127 -61q22 -42 22 -145v-542q0 -107 23 -127q10 -8 26 -8q12 0 92 25q36 59 43 85l95 49q0 -96 -1 -96t-1 8q2 -41 29 -64q29 -25 71 -25q20 0 44 6q65 53 65 151 q9 118 9 230q0 268 -54 314t-266 46q145 90 240 123q115 39 267 39q107 0 147.5 -35t40.5 -134v-838h-185v722q-11 109 -11 110q-6 45 -16 54q-61 51 -133 51q-27 0 -75 -7q-60 -10 -85 -12q77 -9 108 -22q53 -23 69 -80l9 -86q1 -11 1 -381q0 -170 -43 -206l-116 -97 q-57 -48 -123 -48q-114 0 -114 113l-70 -73q-41 -43 -120 -43q-62 0 -100 32q-27 23 -27 130v569q0 55 -15 106q-20 72 -60 72q-42 0 -82 -54v-850h-181v706q0 95 -10 127q-23 72 -101 72q-136 0 -136 -196v-709h-53zM-841 2119q0 101 94 212t212 143q38 10 73 10 q89 0 157 -67q42 -42 42 -94q0 -84 -104 -187q-74 -74 -171 -133q124 124 124 194q0 42 -36 75q-81 72 -166 72q-75 0 -75 -85q0 -89 62 -111q27 -9 138 -9l-150 -151q-87 0 -85 0q-49 4 -76 32q-39 39 -39 99z" />
<glyph unicode="&#xee;" horiz-adv-x="138" d="M-1484 2831v1185q20 174 173 285q149 108 306 108q174 0 202 -189q4 -27 4 -153v-1022q33 -114 201 -121v107l-105 -44q34 59 101 96q51 27 157 59v-211q97 8 162 8q34 0 60 -2q27 -3 27 4q0 -14 -4 -14q-7 0 -31 61q-35 92 -35 127v880q24 188 97 250q75 79 115 105 q62 40 151 46q79 6 246 7h54q149 0 159 -10q3 -3 3 -8q0 -9 -321 -386t-365 -421q151 -109 384 -371q189 -213 304 -376h-308q-249 299 -346 390l-118 104l-2 -158v-10q0 -94 19 -116l139 -157q2 -3 2 -4q0 -31 -392 -42v-63q68 16 69 18q13 3 74 16l-296 -203v230 q-339 3 -384 49q-49 32 -61 47q-20 25 -20 73v1044q-17 101 -45 141q-39 55 -127 55q-80 0 -136 -75q-54 -71 -54 -166v-1173h-59zM-841 2119q0 101 94 212t212 143q38 10 73 10q89 0 157 -67q42 -42 42 -94q0 -84 -104 -187q-74 -74 -171 -133q124 124 124 194q0 42 -36 75 q-81 72 -166 72q-75 0 -75 -85q0 -89 62 -111q27 -9 138 -9l-150 -151q-87 0 -85 0q-49 4 -76 32q-39 39 -39 99zM-206 3563q99 102 271 316q102 141 267 348q-200 17 -230 17q-193 0 -267 -94q-30 -63 -40 -192q-2 -23 -2 -160q0 -92 1 -235z" />
<glyph unicode="&#xef;" horiz-adv-x="138" d="M-1313 2606v140h1702v-140h-1702zM-841 2119q0 101 94 212t212 143q38 10 73 10q89 0 157 -67q42 -42 42 -94q0 -84 -104 -187q-74 -74 -171 -133q124 124 124 194q0 42 -36 75q-81 72 -166 72q-75 0 -75 -85q0 -89 62 -111q27 -9 138 -9l-150 -151q-87 0 -85 0 q-49 4 -76 32q-39 39 -39 99z" />
<glyph unicode="&#xf1;" horiz-adv-x="2118" d="M262 1865q0 10 2 20q14 72 66 125q12 12 113 92q-45 42 -45 97q0 95 91.5 190t189.5 95q160 0 160 -102q0 -61 -75 -121q-46 -38 -142 -110q213 -143 660 -143q255 0 473 96q283 124 283 352q0 112 -89 212q-92 103 -205 103q-44 0 -85 -18v202h185v-73q34 14 69 14 q102 0 183 -102q78 -98 78 -212q0 -295 -293 -486q-254 -166 -555 -166q-673 0 -866 158l-56 -63q-30 -39 -30 -80q0 -92 172 -92q176 0 265 70q-91 -152 -356 -152q-193 0 -193 94zM317 0v1242q0 384 253 384q192 0 264 -72q77 -78 77 -289v-417q46 19 170 28 q137 11 180 22v321q0 188 128 311q125 119 309 119q420 0 420 -400v-1249h-252v1204q0 153 -35 220q-50 98 -192 98q-135 0 -215 -89q-75 -84 -75 -214q1 -67 1 -147t-1 -174q157 -14 249 -124q89 -108 89 -280v-8q-2 -186 -99 -324q-112 -159 -296 -159h-31v754 q-142 13 -231 13q-90 0 -119 -13v-757h-233v1265q0 237 -108 237q-129 0 -173 -79q-31 -54 -31 -181v-1242h-49zM505 2356v-7q0 -101 84 -173l81 57q54 43 54 79q0 28 -29.5 51.5t-93.5 23.5q-74 0 -96 -31zM1349 95q13 -9 26 -9q48 0 88 111q38 105 38 220q0 270 -152 272 v-594z" />
<glyph unicode="&#xf2;" horiz-adv-x="1324" d="M-289 2387q0 141 130 256q113 98 264 135q-113 -38 -204 -147q-97 -115 -97 -230q0 -304 493 -468q361 -120 749 -120q766 0 766 317q0 298 -341 298v204h185v-88q21 5 44 5q107 0 193.5 -89.5t86.5 -200.5q0 -539 -1083 -539q-410 0 -742 135q-444 182 -444 532zM191 13 q434 331 616 929q39 128 39 263q0 215 -130 215q-10 0 -29 -3t-29 -3q-13 -31 -19 -55l-368 -280q24 104 74 194q61 109 249 218q185 107 303 107q86 0 138 -106q42 -86 42 -181q0 -245 -194 -593q-174 -312 -336 -440q30 6 59 6q57 0 161 -36q91 -32 179 -32q150 0 243 91 l127 148l-157 -320q-63 -119 -190 -131h-2q-24 0 -185 37q-177 41 -252 41q-171 0 -339 -69z" />
<glyph unicode="&#xf3;" horiz-adv-x="1324" d="M62 1725v629q0 301 199 343q44 9 82 9h8q117 0 182 -71q1 0 2 -1q71 59 81 66q39 24 93 24h3q95 0 127 -61q22 -42 22 -145v-542q0 -107 23 -127q10 -8 26 -8q12 0 92 25q36 59 43 85l95 49q0 -96 -1 -96t-1 8q2 -41 29 -64q29 -25 71 -25q20 0 44 6q65 53 65 151 q9 118 9 230q0 268 -54 314t-266 46q145 90 240 123q115 39 267 39q107 0 147.5 -35t40.5 -134v-838h-185v722q-11 109 -11 110q-6 45 -16 54q-61 51 -133 51q-27 0 -75 -7q-60 -10 -85 -12q77 -9 108 -22q53 -23 69 -80l9 -86q1 -11 1 -381q0 -170 -43 -206l-116 -97 q-57 -48 -123 -48q-114 0 -114 113l-70 -73q-41 -43 -120 -43q-62 0 -100 32q-27 23 -27 130v569q0 55 -15 106q-20 72 -60 72q-42 0 -82 -54v-850h-181v706q0 95 -10 127q-23 72 -101 72q-136 0 -136 -196v-709h-53zM191 13q434 331 616 929q39 128 39 263q0 215 -130 215 q-10 0 -29 -3t-29 -3q-13 -31 -19 -55l-368 -280q24 104 74 194q61 109 249 218q185 107 303 107q86 0 138 -106q42 -86 42 -181q0 -245 -194 -593q-174 -312 -336 -440q30 6 59 6q57 0 161 -36q91 -32 179 -32q150 0 243 91l127 148l-157 -320q-63 -119 -190 -131h-2 q-24 0 -185 37q-177 41 -252 41q-171 0 -339 -69z" />
<glyph unicode="&#xf4;" horiz-adv-x="1324" d="M-126 1945v1185q20 174 173 285q149 108 306 108q174 0 202 -189q4 -27 4 -153v-1022q33 -114 201 -121v107l-105 -44q34 59 101 96q51 27 157 59v-211q97 8 162 8q34 0 60 -2q27 -3 27 4q0 -14 -4 -14q-7 0 -31 61q-35 92 -35 127v880q24 188 97 250q75 79 115 105 q62 40 151 46q79 6 246 7h54q149 0 159 -10q3 -3 3 -8q0 -9 -321 -386t-365 -421q151 -109 384 -371q189 -213 304 -376h-308q-249 299 -346 390l-118 104l-2 -158v-10q0 -94 19 -116l139 -157q2 -3 2 -4q0 -31 -392 -42v-63q68 16 69 18q13 3 74 16l-296 -203v230 q-339 3 -384 49q-49 32 -61 47q-20 25 -20 73v1044q-17 101 -45 141q-39 55 -127 55q-80 0 -136 -75q-54 -71 -54 -166v-1173h-59zM191 13q434 331 616 929q39 128 39 263q0 215 -130 215q-10 0 -29 -3t-29 -3q-13 -31 -19 -55l-368 -280q24 104 74 194q61 109 249 218 q185 107 303 107q86 0 138 -106q42 -86 42 -181q0 -245 -194 -593q-174 -312 -336 -440q30 6 59 6q57 0 161 -36q91 -32 179 -32q150 0 243 91l127 148l-157 -320q-63 -119 -190 -131h-2q-24 0 -185 37q-177 41 -252 41q-171 0 -339 -69zM1152 2677q99 102 271 316 q102 141 267 348q-200 17 -230 17q-193 0 -267 -94q-30 -63 -40 -192q-2 -23 -2 -160q0 -92 1 -235z" />
<glyph unicode="&#xf5;" horiz-adv-x="1324" d="M-59 1814q0 10 2 20q14 72 66 125q12 12 113 92q-45 42 -45 97q0 95 91.5 190t189.5 95q160 0 160 -102q0 -61 -75 -121q-46 -38 -142 -110q213 -143 660 -143q255 0 473 96q283 124 283 352q0 112 -89 212q-92 103 -205 103q-44 0 -85 -18v202h185v-73q34 14 69 14 q102 0 183 -102q78 -98 78 -212q0 -295 -293 -486q-254 -166 -555 -166q-673 0 -866 158l-56 -63q-30 -39 -30 -80q0 -92 172 -92q176 0 265 70q-91 -152 -356 -152q-193 0 -193 94zM184 2305v-7q0 -101 84 -173l81 57q54 43 54 79q0 28 -29.5 51.5t-93.5 23.5 q-74 0 -96 -31zM191 13q434 331 616 929q39 128 39 263q0 215 -130 215q-10 0 -29 -3t-29 -3q-13 -31 -19 -55l-368 -280q24 104 74 194q61 109 249 218q185 107 303 107q86 0 138 -106q42 -86 42 -181q0 -245 -194 -593q-174 -312 -336 -440q30 6 59 6q57 0 161 -36 q91 -32 179 -32q150 0 243 91l127 148l-157 -320q-63 -119 -190 -131h-2q-24 0 -185 37q-177 41 -252 41q-171 0 -339 -69z" />
<glyph unicode="&#xf6;" horiz-adv-x="1324" d="M46 1720v140h1702v-140h-1702zM191 13q434 331 616 929q39 128 39 263q0 215 -130 215q-10 0 -29 -3t-29 -3q-13 -31 -19 -55l-368 -280q24 104 74 194q61 109 249 218q185 107 303 107q86 0 138 -106q42 -86 42 -181q0 -245 -194 -593q-174 -312 -336 -440q30 6 59 6 q57 0 161 -36q91 -32 179 -32q150 0 243 91l127 148l-157 -320q-63 -119 -190 -131h-2q-24 0 -185 37q-177 41 -252 41q-171 0 -339 -69z" />
<glyph unicode="&#xf9;" horiz-adv-x="286" d="M-992 2387q0 141 130 256q113 98 264 135q-113 -38 -204 -147q-97 -115 -97 -230q0 -304 493 -468q361 -120 749 -120q766 0 766 317q0 298 -341 298v204h185v-88q21 5 44 5q107 0 193.5 -89.5t86.5 -200.5q0 -539 -1083 -539q-410 0 -742 135q-444 182 -444 532zM-254 7 h254v-869q0 -19 -2 -60t-2 -63q0 -186 158 -186h3q88 1 116 111q15 58 15 198v556q0 109 -30 237q-29 123 -64 172q90 -84 144 -233q43 -118 44 -204v-683q0 -141 -83.5 -219t-238.5 -78q-141 0 -222 78q-92 87 -92 259v984z" />
<glyph unicode="&#xfa;" horiz-adv-x="286" d="M-640 1725v629q0 301 199 343q44 9 82 9h8q117 0 182 -71q1 0 2 -1q71 59 81 66q39 24 93 24h3q95 0 127 -61q22 -42 22 -145v-542q0 -107 23 -127q10 -8 26 -8q12 0 92 25q36 59 43 85l95 49q0 -96 -1 -96t-1 8q2 -41 29 -64q29 -25 71 -25q20 0 44 6q65 53 65 151 q9 118 9 230q0 268 -54 314t-266 46q145 90 240 123q115 39 267 39q107 0 147.5 -35t40.5 -134v-838h-185v722q-11 109 -11 110q-6 45 -16 54q-61 51 -133 51q-27 0 -75 -7q-60 -10 -85 -12q77 -9 108 -22q53 -23 69 -80l9 -86q1 -11 1 -381q0 -170 -43 -206l-116 -97 q-57 -48 -123 -48q-114 0 -114 113l-70 -73q-41 -43 -120 -43q-62 0 -100 32q-27 23 -27 130v569q0 55 -15 106q-20 72 -60 72q-42 0 -82 -54v-850h-181v706q0 95 -10 127q-23 72 -101 72q-136 0 -136 -196v-709h-53zM-254 7h254v-869q0 -19 -2 -60t-2 -63q0 -186 158 -186 h3q88 1 116 111q15 58 15 198v556q0 109 -30 237q-29 123 -64 172q90 -84 144 -233q43 -118 44 -204v-683q0 -141 -83.5 -219t-238.5 -78q-141 0 -222 78q-92 87 -92 259v984z" />
<glyph unicode="&#xfb;" horiz-adv-x="286" d="M-828 1945v1185q20 174 173 285q149 108 306 108q174 0 202 -189q4 -27 4 -153v-1022q33 -114 201 -121v107l-105 -44q34 59 101 96q51 27 157 59v-211q97 8 162 8q34 0 60 -2q27 -3 27 4q0 -14 -4 -14q-7 0 -31 61q-35 92 -35 127v880q24 188 97 250q75 79 115 105 q62 40 151 46q79 6 246 7h54q149 0 159 -10q3 -3 3 -8q0 -9 -321 -386t-365 -421q151 -109 384 -371q189 -213 304 -376h-308q-249 299 -346 390l-118 104l-2 -158v-10q0 -94 19 -116l139 -157q2 -3 2 -4q0 -31 -392 -42v-63q68 16 69 18q13 3 74 16l-296 -203v230 q-339 3 -384 49q-49 32 -61 47q-20 25 -20 73v1044q-17 101 -45 141q-39 55 -127 55q-80 0 -136 -75q-54 -71 -54 -166v-1173h-59zM-254 7h254v-869q0 -19 -2 -60t-2 -63q0 -186 158 -186h3q88 1 116 111q15 58 15 198v556q0 109 -30 237q-29 123 -64 172q90 -84 144 -233 q43 -118 44 -204v-683q0 -141 -83.5 -219t-238.5 -78q-141 0 -222 78q-92 87 -92 259v984zM450 2677q99 102 271 316q102 141 267 348q-200 17 -230 17q-193 0 -267 -94q-30 -63 -40 -192q-2 -23 -2 -160q0 -92 1 -235z" />
<glyph unicode="&#xfc;" horiz-adv-x="2666" d="M61 750v47h116v-800h73v800h591v-800h76v800h719v-1566h235v769h60v-832h-474v1582h-358v-800h-308v800h-362v-800h-296v800h-72zM133 880v823h610v-765h544v390h-363v375h1677v-823h-197v784h-559v-784h-96v784h-713v-277h395v-507h-860v784h-394v-784h-44zM1714 124 v156l691 141v317h-494v-64h-197v118h886v-371l-689 -141v-124h205l484 -441v-70h-195v70l-435 409h-256zM1714 1773v480h886v-480h-886zM1805 1855h600v325h-600v-325z" />
<glyph unicode="&#xfd;" horiz-adv-x="2002" d="M19 -400v896h398v-834l279 291v543h596v-896h-155v852h-399v-488h284v-364h-326v291l-279 -291h-140v852h-222v-852h-36zM33 626v1031h582v-999h159v58h143v-45q-1 -35 -1 -45h-470v998h-369v-998h-44zM738 -80v-273h155v273h-155zM848 1538v119h827v-1999h235v949h60 v-1012h-464v2029h-307v-728h-50v728h-100v-86h-51v86h-100v-86h-50zM1040 598v189h252v-189h-252zM1078 630h147v125h-147v-125z" />
<glyph unicode="&#xfe;" horiz-adv-x="2440" d="M19 1068v584h741v-285l329 -257v542h741v-584h-162v551h-536v-551h-43l-329 257v-258h-329v300h184v252h-559v-551h-37zM26 59v878h569v-1417h-153v1376h-124v-837h-105v837h-152v-837h-35zM475 1100h140v234h-140v-234zM650 360v568h309v-536h141v536h314v-536h132v536 h293v-568h-127v536h-132v-536h-273v536h-173v-536h-279v536h-176v-536h-29zM652 189v38h105v-659h53v659h456v-659h55v659h527v-707h-138v668h-258v-668h-223v668h-289v-668h-214v669h-74zM1894 -480v1033l393 247v758h-252v-112h-141v205h520v-869l-373 -229v-933h246v116 h127v-216h-520z" />
<glyph unicode="&#xff;" horiz-adv-x="2048" d="M455 603v522l368 368h522l368 -368v-522l-368 -368h-522zM519 634l413 83l-83 -413l234 350l233 -350l-82 413l412 -83l-350 234l350 233l-412 -82l82 412l-233 -350l-234 350l83 -412l-413 82l350 -233z" />
<glyph unicode="&#x152;" horiz-adv-x="4205" d="M297 9q1 12 1 1143q0 471 448 471q253 0 253 -290v-1119q75 -69 278 -69q128 0 176 72q38 56 38 181q0 32 -3 104t-3 110q0 597 -41 639q-29 30 -91 30q-57 0 -125 -23q173 187 293 261q176 109 393 109q201 0 201 -278v-1345q0 -1 2 0q1 -1 -2 -1l2 1q-2 -1 -2 0 l-687 -331q-445 -232 -615 -490q87 44 289 88q210 45 344 45q46 0 75 -6q51 -11 169 -98q107 -79 174 -79q69 0 131 26q30 14 119 67l-100 -167q-50 -82 -106 -117q-68 -43 -175 -43q-67 0 -174 79q-118 87 -169 98q-32 7 -86 7q-156 0 -399.5 -48t-331.5 -95 q70 280 540 628q388 286 738 422v1v1218q0 282 -143 282q-114 0 -309 -167h11q65 0 97 -32q29 -30 46 -299q11 -188 11 -326q0 -233 -20 -336q-39 -193 -163 -277q-78 -53 -299 -53q-169 0 -222 21q-95 37 -95 167v1004q0 271 -174 271q-136 0 -188 -104q-37 -73 -37 -222 v-1130h-69zM2482 92q0 206 580 857q-102 8 -320 23l191 231q99 -8 296 -21q327 381 522 381q41 0 74 -21q37 -24 37 -63q0 -107 -182 -268q-157 -138 -291 -196q-154 -67 -280 -67q-12 0 -24 1q-63 -74 -205 -319q-152 -262 -152 -318q0 -16 11 -16q87 11 301 89 q191 70 304 70q98 0 276.5 -83.5t278.5 -83.5q66 0 149 42l136 78l-226 -288q-160 -88 -238 -88q-110 0 -290.5 84t-254.5 84q-102 0 -312.5 -89.5t-292.5 -89.5q-88 0 -88 71zM3263 1181q232 0 354 53q99 42 99 103q0 32 -30 54.5t-74 22.5q-100 0 -198 -77 q-60 -47 -151 -156z" />
<glyph unicode="&#x153;" horiz-adv-x="1462" d="M-266 2080q0 215 273 457q247 218 480 276q112 28 232 28q269 0 403 -131q91 -89 91 -202q0 -175 -211 -389q-159 -161 -349 -269l241 234q147 159 147 282q0 96 -86 180q-150 146 -409 146q-219 0 -411 -105q-229 -126 -229 -327q0 -165 139 -262q113 -78 246 -78 q67 0 91 24l2 2l7 -6l-1 -1l-167 -164q-25 -25 -88 -25q-131 0 -255 84q-146 99 -146 246zM191 13q434 331 616 929q39 128 39 263q0 215 -130 215q-10 0 -29 -3t-29 -3q-13 -31 -19 -55l-368 -280q24 104 74 194q61 109 249 218q185 107 303 107q86 0 138 -106 q42 -86 42 -181q0 -245 -194 -593q-174 -312 -336 -440q30 6 59 6q57 0 161 -36q91 -32 179 -32q150 0 243 91l127 148l-157 -320q-63 -119 -190 -131h-2q-24 0 -185 37q-177 41 -252 41q-171 0 -339 -69z" />
<glyph unicode="&#x178;" d="M-1593 1750v140h1702v-140h-1702zM-1510 -466q0 118 63 194q71 85 198 85q135 0 135 -215v-564q6 -43 17 -51q39 -28 86 -28q27 0 27 20v594q0 88 77 170t165 82q47 0 86 -29q66 -49 66 -165v-545q0 -98 23 -118q45 -29 75 -29q65 0 65 162q0 5 -3.5 123t-3.5 199 q1 118 8 181q10 84 103 148q87 59 175 60h4q83 0 115 -44q29 -40 29 -133v-754h-185v671q0 70 -1 79q-8 78 -66 78q-10 0 -22 -2q-93 -15 -93 -120q0 -12 1 -40.5t1 -44.5v-342q0 -94 -4 -118q-30 -179 -291 -179q-76 0 -98 31q-17 24 -17 108v545q0 171 -76 171 q-78 0 -78 -98v-594q0 -70 -63 -115q-57 -41 -128 -41q-87 0 -117 15q-46 23 -46 97v537q0 188 -68 188q-72 0 -93 -69q-10 -34 -10 -125v-632h-56v657z" />
<glyph unicode="&#x2c6;" horiz-adv-x="2351" d="M306 7v1185q20 174 173 285q149 108 306 108q174 0 202 -189q4 -27 4 -153v-1022q33 -114 201 -121v107l-105 -44q34 59 101 96q51 27 157 59v-211q97 8 162 8q34 0 60 -2q27 -3 27 4q0 -14 -4 -14q-7 0 -31 61q-35 92 -35 127v880q24 188 97 250q75 79 115 105 q62 40 151 46q79 6 246 7h54q149 0 159 -10q3 -3 3 -8q0 -9 -321 -386t-365 -421q151 -109 384 -371q189 -213 304 -376h-308q-249 299 -346 390l-118 104l-2 -158v-10q0 -94 19 -116l139 -157q2 -3 2 -4q0 -31 -392 -42v-63q68 16 69 18q13 3 74 16l-296 -203v230 q-339 3 -384 49q-49 32 -61 47q-20 25 -20 73v1044q-17 101 -45 141q-39 55 -127 55q-80 0 -136 -75q-54 -71 -54 -166v-1173h-59zM1584 739q99 102 271 316q102 141 267 348q-200 17 -230 17q-193 0 -267 -94q-30 -63 -40 -192q-2 -23 -2 -160q0 -92 1 -235z" />
<glyph unicode="&#x2dc;" horiz-adv-x="532" d="M-956 216q0 10 2 20q14 72 66 125q12 12 113 92q-45 42 -45 97q0 95 91.5 190t189.5 95q160 0 160 -102q0 -61 -75 -121q-46 -38 -142 -110q213 -143 660 -143q255 0 473 96q283 124 283 352q0 112 -89 212q-92 103 -205 103q-44 0 -85 -18v202h185v-73q34 14 69 14 q102 0 183 -102q78 -98 78 -212q0 -295 -293 -486q-254 -166 -555 -166q-673 0 -866 158l-56 -63q-30 -39 -30 -80q0 -92 172 -92q176 0 265 70q-91 -152 -356 -152q-193 0 -193 94zM-713 707v-7q0 -101 84 -173l81 57q54 43 54 79q0 28 -29.5 51.5t-93.5 23.5 q-74 0 -96 -31z" />
<glyph unicode="&#x2013;" horiz-adv-x="1024" d="M204 512v204h616v-204h-616z" />
<glyph unicode="&#x2014;" horiz-adv-x="2048" d="M204 512v204h1640v-204h-1640z" />
<glyph unicode="&#x2018;" d="M-2045 -1345q0 141 130 256q113 98 264 135q-113 -38 -204 -147q-97 -115 -97 -230q0 -304 493 -468q361 -120 749 -120q766 0 766 317q0 298 -341 298v204h185v-88q21 5 44 5q107 0 193.5 -89.5t86.5 -200.5q0 -539 -1083 -539q-410 0 -742 135q-444 182 -444 532z" />
<glyph unicode="&#x2026;" horiz-adv-x="4830" d="M340 406q246 -117 394 -140l-117 358q-76 236 -102 357l-75 348q35 -145 252 -588l282 -551l-144 -144q-129 36 -490 360zM913 406q247 -117 394 -140l-116 358q-65 202 -103 357l-91 371q62 -258 551 -1162l-145 -144q-129 36 -490 360zM1950 406q246 -117 394 -140 l-117 358q-76 236 -102 357l-75 348q35 -145 252 -588l282 -551l-144 -144q-129 36 -490 360zM2523 406q247 -117 394 -140l-116 358q-65 202 -103 357l-91 371q62 -258 551 -1162l-145 -144q-129 36 -490 360zM3560 406q246 -117 394 -140l-117 358q-76 236 -102 357 l-75 348q35 -145 252 -588l282 -551l-144 -144q-129 36 -490 360zM4133 406q247 -117 394 -140l-116 358q-65 202 -103 357l-91 371q62 -258 551 -1162l-145 -144q-129 36 -490 360z" />
<glyph unicode="&#x2039;" horiz-adv-x="211" d="M-1395 -407q0 233 211 233q145 0 145 -135v-674h122q6 0 39.5 16.5t33.5 21.5q0 6 -85 15l75 40q33 -3 103 -3q-15 -26 -142 -121q-41 -31 -121 -31h-190v661q0 138 -78 138q-80 0 -80 -180v-620h-33v639zM-1042 -1425q0 100 71 161q77 66 197 132q142 79 227 87h1v784 q0 47 -59 47t-59 -47v-110h-66v110q0 49 -51 49t-51 -49v-110h-48v110q0 102 103 102q37 0 56 -20l25 -31q16 16 33 31q29 20 75 20q11 0 34 1h36q130 0 130 -103v-769q25 9 156 35l-71 -83q-7 -6 -84 -22l4 -146v-14q0 -76 -10 -131q-13 -69 -161 -168q-144 -97 -225 -97 q-118 0 -185 58q-78 66 -78 173zM-947 -1351q0 -82 83.5 -145.5t189.5 -63.5q42 0 81 11q47 81 47 287v25l-1 124q-400 -69 -400 -238z" />
<glyph unicode="&#x203a;" horiz-adv-x="2013" d="M174 -26l88 106q73 85 128 121q86 57 179 57q64 0 166 -33.5t143 -33.5q11 17 40 48q37 16 142 56l-90 -116q138 -6 408 -37v1158q0 159 93 227q81 60 250 60q292 0 292 -308v-1278h-255v1164q0 203 -49 256q-35 38 -122 38q-137 0 -144 -134v-1132q-1 -22 -52 -98 q-53 -80 -79 -80q6 0 -121 5q-180 8 -215 16q85 -51 85 -110q0 -44 -51 -98l-69 -67q-31 -40 -165 -110l128 165q77 38 77 79q0 43 -79 84q-60 31 -134 49q-4 3 -4 4q-3 8 18 35q-24 1 -133 54t-174 53q-30 0 -56 -10q-35 -13 -121 -90q-93 -83 -124 -100z" />
<glyph unicode="&#x2122;" horiz-adv-x="202" d="M-1656 -536q0 133 57 226q68 110 195 110q168 0 168 -239v-483q0 -48 54 -105q20 -21 153 -21q123 0 181 12q3 11 3 45v211q1 10 1 18q0 57 -65 57h-129q18 197 22 229q14 94 44 130q108 176 345 176q109 0 158.5 -47.5t49.5 -156.5v-749q32 44 94 96q30 26 51 26 q22 0 68 -36q50 -39 56 -39q2 0 21 17q23 20 38 30q36 24 92 24q10 0 21 -1h-5q-32 0 -104 -64q-10 -9 -67 -70q-31 -33 -49 -33q-7 0 -34 20q-31 23 -35 25q-41 19 -47 19q-27 0 -100 -70h-177v782q-16 115 -142 115q-43 0 -95 -26.5t-73 -62.5q-33 -56 -33 -234v-21 q5 4 55 0q62 -5 58 -5q60 0 60 -60v-312l-147 -131q-59 -52 -227 -52q-137 0 -211 31q-65 55 -73 107v553q0 178 -86 178q-87 0 -87 -219v-638h-59v638zM-1093 -1061q0 196 103 383q108 197 293 309q123 75 281.5 124.5t279.5 49.5q230 0 230 -152q0 -104 -102 -212.5 t-197 -108.5q-50 0 -85 31.5t-35 75.5q0 45 35 76.5t85 31.5q93 0 116 -81q73 61 73 114q0 54 -71 87q-67 31 -168 31q-158 0 -278 -72q-157 -95 -278.5 -321t-121.5 -430q0 -164 88 -256q96 -100 286 -100h15q197 4 337 156q126 136 128 286h180v-88q-34 -177 -274 -314 q-214 -123 -399 -123q-256 0 -396 150q-125 136 -125 353z" />
<glyph unicode="&#xe000;" horiz-adv-x="1590" d="M0 1590h1590v-1590h-1590v1590z" />
<glyph unicode="&#xfb01;" horiz-adv-x="2402" d="M312 0v1149q2 171 104 305q108 142 260 142q147 0 224 -120q58 -91 58 -203v-1084q13 -54 53 -54q73 0 238 183l189 223v619q0 225 144 344q130 108 345 108q174 0 263 -124q74 -103 74 -258v-1230h-255v1113q0 167 -31 242q-51 126 -201 126q-225 0 -272 -314v-547 q53 33 100 33q90 0 144 -112q46 -95 46 -210q0 -195 -189 -306q-41 -24 -102 -24q-66 0 -66 43v407l-220 -260q-178 -191 -275 -191h-217v1134q0 139 -27 199q-43 95 -168 95q-77 0 -127 -96q-42 -81 -43 -170v-1162h-49zM1423 2119q0 101 94 212t212 143q38 10 73 10 q89 0 157 -67q42 -42 42 -94q0 -84 -104 -187q-74 -74 -171 -133q124 124 124 194q0 42 -36 75q-81 72 -166 72q-75 0 -75 -85q0 -89 62 -111q27 -9 138 -9l-150 -151q-87 0 -85 0q-49 4 -76 32q-39 39 -39 99zM1505 75q8 -1 16 -1q46 0 80 51.5t34 127.5q0 81 -27 148 q-35 88 -103 96v-422z" />
<glyph unicode="&#xfb02;" horiz-adv-x="4508" d="M312 0v1149q2 171 104 305q108 142 260 142q147 0 224 -120q58 -91 58 -203v-1084q13 -54 53 -54q73 0 238 183l189 223v619q0 225 144 344q130 108 345 108q174 0 263 -124q74 -103 74 -258v-1230h-255v1113q0 167 -31 242q-51 126 -201 126q-225 0 -272 -314v-547 q53 33 100 33q90 0 144 -112q46 -95 46 -210q0 -195 -189 -306q-41 -24 -102 -24q-66 0 -66 43v407l-220 -260q-178 -191 -275 -191h-217v1134q0 139 -27 199q-43 95 -168 95q-77 0 -127 -96q-42 -81 -43 -170v-1162h-49zM1505 75q8 -1 16 -1q46 0 80 51.5t34 127.5 q0 81 -27 148q-35 88 -103 96v-422zM2559 -4v1209q0 137 84 252q101 138 273 150h9q51 0 95 -44q43 -43 55 -99l106 85q88 63 163 63h5q75 -2 119 -76q36 -59 36 -136q0 -11 -1 -23v-1198q0 -54 67 -90q62 -33 142 -33q100 0 141 52v1048q-2 18 -2 37q0 146 75 256 q93 138 270 138q312 0 312 -355v-1233h-253v1254q0 198 -156 198q-57 0 -112 -57q-69 -71 -69 -185v-1029q2 -18 2 -33q0 -89 -73 -123q-50 -23 -260 -23q-127 0 -174 15q-79 24 -96 104v1090q0 93 -4 124q-11 70 -50 110q-23 23 -54 23q-62 0 -137 -79v-1389h-204v1226 q0 65 -2 88q-3 37 -32 78q-32 48 -70 48q-120 0 -148 -238v-1205h-57z" />
<glyph unicode="&#xfb03;" horiz-adv-x="4666" d="M312 0v1149q2 171 104 305q108 142 260 142q147 0 224 -120q58 -91 58 -203v-1084q13 -54 53 -54q73 0 238 183l189 223v619q0 225 144 344q130 108 345 108q174 0 263 -124q74 -103 74 -258v-1230h-255v1113q0 167 -31 242q-51 126 -201 126q-225 0 -272 -314v-547 q53 33 100 33q90 0 144 -112q46 -95 46 -210q0 -195 -189 -306q-41 -24 -102 -24q-66 0 -66 43v407l-220 -260q-178 -191 -275 -191h-217v1134q0 139 -27 199q-43 95 -168 95q-77 0 -127 -96q-42 -81 -43 -170v-1162h-49zM1505 75q8 -1 16 -1q46 0 80 51.5t34 127.5 q0 81 -27 148q-35 88 -103 96v-422zM2576 0v1149q2 171 104 305q108 142 260 142q147 0 224 -120q58 -91 58 -203v-1084q13 -54 53 -54q73 0 238 183l189 223v619q0 225 144 344q130 108 345 108q174 0 263 -124q74 -103 74 -258v-1230h-255v1113q0 167 -31 242 q-51 126 -201 126q-225 0 -272 -314v-547q53 33 100 33q90 0 144 -112q46 -95 46 -210q0 -195 -189 -306q-41 -24 -102 -24q-66 0 -66 43v407l-220 -260q-178 -191 -275 -191h-217v1134q0 139 -27 199q-43 95 -168 95q-77 0 -127 -96q-42 -81 -43 -170v-1162h-49zM3687 2119 q0 101 94 212t212 143q38 10 73 10q89 0 157 -67q42 -42 42 -94q0 -84 -104 -187q-74 -74 -171 -133q124 124 124 194q0 42 -36 75q-81 72 -166 72q-75 0 -75 -85q0 -89 62 -111q27 -9 138 -9l-150 -151q-87 0 -85 0q-49 4 -76 32q-39 39 -39 99zM3769 75q8 -1 16 -1 q46 0 80 51.5t34 127.5q0 81 -27 148q-35 88 -103 96v-422z" />
<glyph unicode="&#xfb04;" horiz-adv-x="6772" d="M312 0v1149q2 171 104 305q108 142 260 142q147 0 224 -120q58 -91 58 -203v-1084q13 -54 53 -54q73 0 238 183l189 223v619q0 225 144 344q130 108 345 108q174 0 263 -124q74 -103 74 -258v-1230h-255v1113q0 167 -31 242q-51 126 -201 126q-225 0 -272 -314v-547 q53 33 100 33q90 0 144 -112q46 -95 46 -210q0 -195 -189 -306q-41 -24 -102 -24q-66 0 -66 43v407l-220 -260q-178 -191 -275 -191h-217v1134q0 139 -27 199q-43 95 -168 95q-77 0 -127 -96q-42 -81 -43 -170v-1162h-49zM1505 75q8 -1 16 -1q46 0 80 51.5t34 127.5 q0 81 -27 148q-35 88 -103 96v-422zM2576 0v1149q2 171 104 305q108 142 260 142q147 0 224 -120q58 -91 58 -203v-1084q13 -54 53 -54q73 0 238 183l189 223v619q0 225 144 344q130 108 345 108q174 0 263 -124q74 -103 74 -258v-1230h-255v1113q0 167 -31 242 q-51 126 -201 126q-225 0 -272 -314v-547q53 33 100 33q90 0 144 -112q46 -95 46 -210q0 -195 -189 -306q-41 -24 -102 -24q-66 0 -66 43v407l-220 -260q-178 -191 -275 -191h-217v1134q0 139 -27 199q-43 95 -168 95q-77 0 -127 -96q-42 -81 -43 -170v-1162h-49zM3769 75 q8 -1 16 -1q46 0 80 51.5t34 127.5q0 81 -27 148q-35 88 -103 96v-422zM4823 -4v1209q0 137 84 252q101 138 273 150h9q51 0 95 -44q43 -43 55 -99l106 85q88 63 163 63h5q75 -2 119 -76q36 -59 36 -136q0 -11 -1 -23v-1198q0 -54 67 -90q62 -33 142 -33q100 0 141 52v1048 q-2 18 -2 37q0 146 75 256q93 138 270 138q312 0 312 -355v-1233h-253v1254q0 198 -156 198q-57 0 -112 -57q-69 -71 -69 -185v-1029q2 -18 2 -33q0 -89 -73 -123q-50 -23 -260 -23q-127 0 -174 15q-79 24 -96 104v1090q0 93 -4 124q-11 70 -50 110q-23 23 -54 23 q-62 0 -137 -79v-1389h-204v1226q0 65 -2 88q-3 37 -32 78q-32 48 -70 48q-120 0 -148 -238v-1205h-57z" />
</font>
</defs>
</svg>
